<svg width="56" height="56" viewBox="0 0 56 56" fill="none" xmlns="http://www.w3.org/2000/svg">
<path d="M54.4053 26.9311L49.0296 25.9614V25.3252L50.0454 25.5251C50.1016 25.5362 50.1581 25.5415 50.2144 25.5415C50.4153 25.5415 50.6123 25.4722 50.7702 25.3423C50.9724 25.1761 51.0894 24.9283 51.0894 24.6665V20.1997C51.0894 19.7912 50.8068 19.4371 50.4084 19.3465L26.6656 13.9474C26.307 7.15022 20.6644 1.73047 13.7795 1.73047C6.664 1.73047 0.875 7.51947 0.875 14.635C0.875 19.8658 4.00356 24.3796 8.48761 26.4039L1.25836 31.3141C1.0185 31.4769 0.875 31.748 0.875 32.0378V48.3644C0.875 48.7463 1.12273 49.084 1.48695 49.1989L17.4433 54.2287C17.5284 54.2555 17.6171 54.2692 17.7064 54.2692H54.25C54.7332 54.2692 55.125 53.8774 55.125 53.3942V27.7922C55.125 27.369 54.8219 27.0063 54.4053 26.9311ZM47.2796 25.6459L45.9643 25.4086V24.7221L47.2796 24.981V25.6459ZM25.201 20.6357L25.6178 20.7178V21.7384L24.6605 21.5657C24.8533 21.2641 25.0333 20.9537 25.201 20.6357ZM27.3678 21.0622L29.4746 21.4768V22.4342L27.3678 22.0542V21.0622ZM31.2246 21.8212L44.2142 24.3777V25.093L31.2246 22.7498V21.8212ZM49.3393 23.6026L25.9254 18.9947C26.297 17.9625 26.5403 16.8697 26.6366 15.7355L49.3393 20.8982V23.6026ZM2.625 14.635C2.625 8.48438 7.62891 3.48047 13.7795 3.48047C19.9301 3.48047 24.934 8.48438 24.934 14.635C24.934 20.7856 19.9301 25.7895 13.7795 25.7895C7.62891 25.7895 2.625 20.7857 2.625 14.635ZM2.625 32.5013L10.5377 27.1269C11.574 27.396 12.6604 27.5395 13.7796 27.5395C14.8308 27.5395 15.8526 27.4122 16.8315 27.1739V52.2009L13.514 51.1552V38.4593C13.7802 38.3065 13.9537 38.0208 13.9537 37.7011V35.1406C13.9537 34.8668 13.8255 34.6088 13.6073 34.4433C13.3891 34.2778 13.106 34.2241 12.8425 34.2981L5.04733 36.4838C4.66955 36.5897 4.40858 36.934 4.40858 37.3263V39.4531C4.40858 39.6702 4.49028 39.8769 4.63291 40.0361V48.3556L2.625 47.7227V32.5013ZM12.2037 37.0008L6.15858 38.3596V37.9897L12.2037 36.2946V37.0008ZM6.38291 40.1028L7.62978 39.8226V49.3004L6.38291 48.9073V40.1028ZM9.37978 39.4293L11.7639 38.8934V50.6036L9.37978 49.8521V39.4293ZM45.5188 39.516V52.5192H38.9372V38.8714L45.5188 39.516ZM46.2095 37.8253L28.7524 36.1153V35.091L46.2095 36.9771V37.8253ZM37.1872 38.7V52.5192H29.624V37.9592L37.1872 38.7ZM53.375 52.5192H47.2688V39.6448C47.4176 39.6126 47.5572 39.5427 47.6723 39.4384C47.8552 39.2725 47.9595 39.0371 47.9595 38.7902V36.1916C47.9595 35.7448 47.6227 35.3696 47.1785 35.3216L27.9713 33.2465C27.7246 33.2193 27.4776 33.2994 27.2928 33.4653C27.1079 33.6313 27.0023 33.868 27.0023 34.1164V36.9088C27.0023 37.3589 27.344 37.7357 27.792 37.7796L27.8739 37.7876V52.519H18.5813V26.6124C20.4794 25.8488 22.1553 24.6465 23.4834 23.1318L53.375 28.5235V52.5192ZM28.5329 17.8345C28.6332 17.3619 29.0971 17.06 29.5704 17.1601L35.1323 18.3398C35.6051 18.4401 35.907 18.9046 35.8068 19.3774C35.7195 19.7888 35.3561 20.0709 34.9517 20.0709C34.8915 20.0709 34.8305 20.0647 34.7692 20.0517L29.2073 18.8719C28.7346 18.7717 28.4326 18.3072 28.5329 17.8345ZM40.1998 20.3091C40.3001 19.8365 40.7644 19.5343 41.2372 19.6347L46.0595 20.6576C46.5322 20.7579 46.8342 21.2224 46.7339 21.6951C46.6466 22.1066 46.2832 22.3887 45.8788 22.3887C45.8186 22.3887 45.7576 22.3824 45.6963 22.3694L40.8741 21.3465C40.4014 21.2465 40.0995 20.782 40.1998 20.3091ZM20.608 20.7159C20.608 20.2327 20.2162 19.8409 19.733 19.8409H10.6739C10.5456 19.8409 10.4372 19.7325 10.4372 19.6042C10.4372 19.4759 10.5456 19.3675 10.6739 19.3675H19.5197C19.9294 19.3675 20.2843 19.0833 20.3736 18.6835L21.6538 12.9583C21.7836 12.3781 21.6599 11.8151 21.3055 11.3726C20.9436 10.9208 20.3479 10.6289 19.7879 10.6289H9.81225L9.30562 8.36319C9.21627 7.96342 8.86134 7.67916 8.45173 7.67916H6.72973C6.24652 7.67916 5.85473 8.07094 5.85473 8.55416C5.85473 9.03737 6.24652 9.42916 6.72973 9.42916H7.75064L8.25716 11.6943C8.25716 11.6945 8.25727 11.6948 8.25727 11.695L9.64633 17.9071C9.07255 18.2558 8.68711 18.8851 8.68711 19.6042C8.68711 20.6997 9.5783 21.5909 10.6738 21.5909H19.7329C20.2162 21.5909 20.608 21.1992 20.608 20.7159ZM19.7811 12.3788C19.8171 12.3822 19.9058 12.4198 19.9429 12.471C19.949 12.4794 19.9633 12.4992 19.9461 12.5763L18.8188 17.6175H11.3749L10.2455 12.5665C10.2455 12.5664 10.2455 12.5661 10.2454 12.566L10.2035 12.3789L19.7811 12.3788Z" fill="#EA570F"/>
</svg>
