<svg width="56" height="56" viewBox="0 0 56 56" fill="none" xmlns="http://www.w3.org/2000/svg">
<path fill-rule="evenodd" clip-rule="evenodd" d="M21.6786 23.4593C19.6951 26.0122 16.5956 27.6556 13.1114 27.6556C7.1208 27.6556 2.26758 22.797 2.26758 16.8118C2.26758 10.8214 7.12091 5.96306 13.1114 5.96306C13.5965 5.96306 13.9898 6.35638 13.9898 6.84149V15.9334H17.5546C17.4954 15.5761 17.4508 15.2138 17.4213 14.8474H15.8415C15.3564 14.8474 14.9631 14.4541 14.9631 13.969V3.99373C14.9631 3.50861 15.3564 3.1153 15.8415 3.1153C17.8027 3.1153 19.6421 3.63533 21.2296 4.54472C23.5832 2.20985 26.8235 0.767578 30.401 0.767578C37.5934 0.767578 43.423 6.59707 43.423 13.7896C43.423 16.2982 42.7137 18.6411 41.4848 20.6286L44.2265 23.2907C44.9538 22.9428 45.858 23.0607 46.4677 23.651L46.4685 23.6518L53.137 30.1234C53.9185 30.8801 53.9405 32.1391 53.1776 32.9268L53.177 32.9275L50.7705 35.4065L50.7696 35.4073C50.5031 35.6823 50.1744 35.863 49.8257 35.9486V54.3519C49.8257 54.837 49.4325 55.2303 48.9473 55.2303H43.268C42.7828 55.2303 42.3896 54.837 42.3896 54.3519V32.4613C42.3896 31.9762 42.7828 31.5828 43.268 31.5828H43.9837C43.4282 31.0435 42.8978 30.5284 42.4573 30.1008L36.1944 36.6382C35.9292 36.9149 35.5152 36.9878 35.1714 36.8184L25.1464 31.8744L15.0416 40.6763C14.6761 40.9947 14.1207 40.9564 13.8023 40.5908C13.4838 40.2252 13.5222 39.6699 13.8877 39.3515L24.4335 30.1654C24.7006 29.9328 25.0813 29.8833 25.3991 30.04L35.3712 34.9579L41.2003 28.8734C40.6725 28.2839 40.5604 27.4439 40.8687 26.7485L38.2349 24.1927C36.0551 25.8368 33.342 26.8115 30.401 26.8115C27.0458 26.8115 23.9872 25.543 21.6786 23.4593ZM17.9732 17.6902H13.1114C12.6262 17.6902 12.2329 17.297 12.2329 16.8118V7.76187C7.62524 8.20405 4.02444 12.088 4.02444 16.8118C4.02444 21.8273 8.09136 25.8987 13.1114 25.8987C16.1215 25.8987 18.789 24.4346 20.4425 22.1811C19.3434 20.8781 18.4955 19.3562 17.9732 17.6902ZM17.3975 13.0905C17.5401 10.3933 18.5032 7.91384 20.042 5.89729C19.0312 5.37034 17.909 5.02775 16.72 4.91399V13.0905H17.3975ZM40.4499 22.0725C40.1722 22.4091 39.8778 22.7314 39.5682 23.0385L42.0058 25.4038L42.9157 24.4667L40.4499 22.0725ZM48.0689 35.5424C48.0351 35.5139 46.9946 34.5063 45.7931 33.3397H44.1465V53.4735H48.0689V35.5424ZM49.5091 34.1837L51.9157 31.7045C52.0024 31.6149 52.0038 31.4717 51.9149 31.3856L51.9142 31.385L45.2456 24.9131C45.1567 24.8272 45.0127 24.8285 44.9266 24.9174L44.9258 24.9182L42.5185 27.398C42.518 27.3985 42.5174 27.3992 42.5169 27.3998C42.4314 27.4873 42.4328 27.629 42.521 27.7138C42.5221 27.7149 42.5232 27.716 42.5243 27.7171C42.5243 27.7171 49.1876 34.187 49.1892 34.1885C49.2797 34.2729 49.4223 34.2733 49.5083 34.1844L49.5091 34.1837ZM30.401 2.52444C24.1788 2.52444 19.1359 7.56752 19.1359 13.7896C19.1359 20.0116 24.1788 25.0547 30.401 25.0547C36.623 25.0547 41.6661 20.0116 41.6661 13.7896C41.6661 7.56752 36.623 2.52444 30.401 2.52444ZM30.401 4.03688C35.7873 4.03688 40.1537 8.40312 40.1537 13.7896C40.1537 19.1759 35.7873 23.5422 30.401 23.5422C25.0146 23.5422 20.6483 19.1759 20.6483 13.7896C20.6483 8.40312 25.0146 4.03688 30.401 4.03688ZM30.401 5.79374C25.9849 5.79374 22.4052 9.37346 22.4052 13.7896C22.4052 18.2056 25.9849 21.7854 30.401 21.7854C34.8171 21.7854 38.3968 18.2056 38.3968 13.7896C38.3968 9.37346 34.8171 5.79374 30.401 5.79374ZM22.1726 37.4232H27.852C28.3372 37.4232 28.7304 37.8165 28.7304 38.3016V54.3519C28.7304 54.837 28.3372 55.2303 27.852 55.2303H22.1726C21.6875 55.2303 21.2942 54.837 21.2942 54.3519V38.3016C21.2942 37.8165 21.6875 37.4232 22.1726 37.4232ZM23.051 39.1801V53.4735H26.9736V39.1801H23.051ZM32.7185 40.4579H38.3979C38.883 40.4579 39.2763 40.8511 39.2763 41.3363V54.3519C39.2763 54.837 38.883 55.2303 38.3979 55.2303H32.7185C32.2333 55.2303 31.8401 54.837 31.8401 54.3519V41.3363C31.8401 40.8511 32.2333 40.4579 32.7185 40.4579ZM33.5969 42.2147V53.4735H37.5195V42.2147H33.5969ZM11.6232 44.9343H17.3062C17.7913 44.9343 18.1846 45.3277 18.1846 45.8128V54.3519C18.1846 54.837 17.7913 55.2303 17.3062 55.2303H11.6232C11.138 55.2303 10.7448 54.837 10.7448 54.3519V45.8128C10.7448 45.3277 11.138 44.9343 11.6232 44.9343ZM12.5016 46.6912V53.4735H16.4278V46.6912H12.5016Z" fill="#EA570F"/>
</svg>
