<svg width="56" height="56" viewBox="0 0 56 56" fill="none" xmlns="http://www.w3.org/2000/svg">
<g clip-path="url(#clip0_1174_343)">
<path d="M37.9881 0H5.81256H5.63264L0.0078125 3.11369V4.29516L5.64522 7.20792H5.81256H37.9881C39.3639 7.20792 40.4831 6.08869 40.4831 4.71286V2.49506C40.4831 1.11923 39.3639 0 37.9881 0ZM5.81256 5.42216L2.4297 3.67423L5.81256 1.80163V5.42216ZM33.1287 5.54455H7.47594V1.66338H33.1289V5.54455H33.1287ZM38.8198 4.71286C38.8198 5.17147 38.4467 5.54455 37.9881 5.54455H34.7922V1.66338H37.9881C38.4467 1.66338 38.8198 2.03645 38.8198 2.49506V4.71286Z" fill="#EA570F"/>
<path d="M48.5088 5.15527C44.6626 5.15527 41.4847 8.07143 41.0696 11.8088H0.0078125V55.9988H48.5088C52.6362 55.9988 55.994 52.641 55.994 48.5136V12.6404C55.994 8.51298 52.6361 5.15527 48.5088 5.15527ZM48.5088 54.3354H1.67119V13.472H41.0237V48.5136C41.0237 51.1124 43.1378 53.2265 45.7365 53.2265H46.5682V43.0256C47.1756 42.8101 47.8285 42.6918 48.5088 42.6918C51.719 42.6918 54.3307 45.3033 54.3307 48.5136C54.3307 51.7239 51.7189 54.3354 48.5088 54.3354ZM42.687 48.5136C42.687 46.6636 43.5555 45.0136 44.9048 43.9465V51.4479C43.6262 51.085 42.687 49.907 42.687 48.5136ZM54.3307 43.8162C52.9572 42.1175 50.8583 41.0285 48.5088 41.0285C46.16 41.0285 44.0605 42.116 42.687 43.8139V13.472V12.6404C42.687 9.43019 45.2986 6.81854 48.5088 6.81854C51.7191 6.81854 54.3307 9.43009 54.3307 12.6404V43.8162Z" fill="#EA570F"/>
<path d="M29.9469 28.4988V25.1721H18.7469V23.5087H26.5092V16.3008H9.32116V23.5087H17.0835V25.1721H5.55078V48.3483H11.927V46.6849H7.21416V40.586H11.927V38.9226H7.21416V26.8355H28.2835V28.4988H20.5212V35.7068H37.7092V28.4988H29.9469ZM10.9845 21.8454V17.9643H24.846V21.8454H10.9845ZM36.0458 34.0434H22.1845V30.1622H36.046V34.0434H36.0458Z" fill="#EA570F"/>
<path d="M30.7807 38.9229H15.2559V40.5862H30.7807V38.9229Z" fill="#EA570F"/>
<path d="M26.3431 42.249H24.6797V43.9124H26.3431V42.249Z" fill="#EA570F"/>
<path d="M23.0169 42.249H21.3535V43.9124H23.0169V42.249Z" fill="#EA570F"/>
<path d="M19.6915 42.249H15.2559V43.9124H19.6915V42.249Z" fill="#EA570F"/>
<path d="M30.7807 46.6855H15.2559V48.3489H30.7807V46.6855Z" fill="#EA570F"/>
<path d="M26.3431 50.0117H24.6797V51.6751H26.3431V50.0117Z" fill="#EA570F"/>
<path d="M23.0169 50.0117H21.3535V51.6751H23.0169V50.0117Z" fill="#EA570F"/>
<path d="M19.6915 50.0117H15.2559V51.6751H19.6915V50.0117Z" fill="#EA570F"/>
</g>
<defs>
<clipPath id="clip0_1174_343">
<rect width="56" height="56" fill="white"/>
</clipPath>
</defs>
</svg>
