<svg width="56" height="56" viewBox="0 0 56 56" fill="none" xmlns="http://www.w3.org/2000/svg">
<path fill-rule="evenodd" clip-rule="evenodd" d="M1.16406 46.1797V44.8438V1.91406C1.16406 0.858703 2.02277 0 3.07812 0H38H39.3742H52.9207C53.976 0 54.8347 0.858703 54.8347 1.91406C54.8347 1.91406 54.8311 43.3146 54.8262 43.3514C54.8588 43.6002 54.7775 43.855 54.5945 44.038L42.8727 55.7598C42.7156 55.9167 42.5059 56 42.2924 56H22.6777H21H3.07812C2.02277 56 1.16406 55.1413 1.16406 54.0859V46.1797ZM3.07812 1.64062H38H39.3742H52.9207C53.0715 1.64062 53.1941 1.76323 53.1941 1.91406V42.6375H43.3863C42.331 42.6375 41.4723 43.4963 41.4723 44.5516V54.3594H22.6777H21H3.07812C2.92741 54.3594 2.80469 54.2368 2.80469 54.0859V44.8438L2.80469 44.843V1.91406C2.80469 1.76323 2.92741 1.64062 3.07812 1.64062ZM43.1129 53.1993V44.5517C43.1129 44.4009 43.2355 44.2783 43.3863 44.2783H52.034L43.1129 53.1993ZM6.50391 5.84082H18.5922C19.0453 5.84082 19.4126 6.20799 19.4126 6.66113C19.4126 7.11427 19.0453 7.48145 18.5922 7.48145H6.50391C6.05088 7.48145 5.68359 7.11427 5.68359 6.66113C5.68359 6.20799 6.05088 5.84082 6.50391 5.84082ZM19.4126 9.58105C19.4126 9.12791 19.0453 8.76074 18.5922 8.76074H6.50391C6.05088 8.76074 5.68359 9.12791 5.68359 9.58105C5.68359 10.0342 6.05088 10.4014 6.50391 10.4014H18.5922C19.0453 10.4014 19.4126 10.0341 19.4126 9.58105ZM37.7873 49.3394C37.7873 49.7925 37.4202 50.1597 36.967 50.1597H14.7639C14.3109 50.1597 13.9436 49.7925 13.9436 49.3394V37.0546L11.4541 34.5651V48.5195C11.9023 48.5251 12.264 48.8896 12.264 49.3393C12.264 49.7924 11.8968 50.1596 11.4437 50.1596H9.82387C9.37084 50.1596 9.00356 49.7924 9.00356 49.3393C9.00356 48.8898 9.36526 48.5252 9.81348 48.5195V32.9245L5.92389 29.0349C5.77 28.8809 5.68359 28.6723 5.68359 28.4548V13.3445C5.68359 12.8914 6.05088 12.5242 6.50391 12.5242H10.9905C11.4435 12.5242 11.8108 12.8914 11.8108 13.3445C11.8108 13.7977 11.4435 14.1648 10.9905 14.1648H7.32422V28.1151L9.81348 30.6043V20.915C9.36526 20.9094 9.00356 20.5448 9.00356 20.0953C9.00356 19.6421 9.37084 19.2749 9.82387 19.2749H11.4437C11.8968 19.2749 12.264 19.6421 12.264 20.0953C12.264 20.5448 11.9023 20.9094 11.4541 20.915V32.2449L13.9436 34.7343V20.0951C13.9436 19.642 14.3109 19.2748 14.7639 19.2748H22.3655V10.9942C22.3655 10.541 22.7327 10.1739 23.1858 10.1739H27.4697V7.69629C27.4697 7.24315 27.837 6.87598 28.29 6.87598H48.1517C48.6049 6.87598 48.972 7.24315 48.972 7.69629V33.0766C48.972 33.5298 48.6049 33.897 48.1517 33.897H37.7873V49.3394ZM19.971 48.5191H22.9309H22.931V45.687C21.4852 45.9925 20.339 47.0904 19.971 48.5191ZM30.362 24.6024V20.9156H29.1103V24.6024H30.362ZM33.2543 20.9156H32.0026V24.6024H33.2543V20.9156ZM36.1467 20.9156H34.895V24.6024H36.1467V20.9156ZM44.3452 29.0323H47.3314V26.2029C45.8925 26.514 44.7239 27.623 44.3452 29.0323ZM44.2769 17.7469H47.3314V8.5166H37.7873V11.1858H43.4566C43.9097 11.1858 44.2769 11.553 44.2769 12.0061V17.7469ZM36.1467 12.006V8.5166H29.1104V19.2749H36.1468V16.8259C36.1468 16.3728 36.514 16.0056 36.9671 16.0056C37.4203 16.0056 37.7874 16.3728 37.7874 16.8259V32.2563H47.3315V30.6728H43.3983C43.1756 30.6728 42.9626 30.5824 42.8081 30.4222C42.6534 30.2621 42.5705 30.046 42.5784 29.8236C42.629 28.3842 43.2344 27.0376 44.2829 26.032C45.13 25.2197 46.1908 24.7029 47.3314 24.5348V19.3874H43.4566C43.0034 19.3874 42.6363 19.0202 42.6363 18.5671V12.8263H36.967C36.5139 12.8263 36.1467 12.4591 36.1467 12.006ZM27.4697 11.8146H24.0061V19.2749H27.4697V11.8146ZM15.5842 32.2563H18.6467V27.9825H15.5842V32.2563ZM18.4489 41.5599L15.5842 38.6952L15.5841 48.5191H18.2933C18.7574 45.9079 21.0188 43.9613 23.7512 43.9613C24.2043 43.9613 24.5716 44.3285 24.5716 44.7816V48.5191H36.1467V26.243H27.0503C26.5973 26.243 26.23 25.8758 26.23 25.4227C26.23 24.9696 26.5973 24.6024 27.0503 24.6024H27.4696V20.9156H15.5841V26.3419H19.4669C19.92 26.3419 20.2872 26.7091 20.2872 27.1622V32.2563H30.0033C30.4565 32.2563 30.8237 32.6235 30.8237 33.0766C30.8237 33.5298 30.4565 33.897 30.0033 33.897H15.5841V36.375L19.6089 40.3997C19.9292 40.7201 19.9292 41.2394 19.6089 41.5599C19.4488 41.72 19.2388 41.8001 19.0289 41.8001C18.819 41.8001 18.609 41.72 18.4489 41.5599ZM46.3933 36.833C46.3933 36.3799 46.0261 36.0127 45.573 36.0127H40.6875C40.2344 36.0127 39.8672 36.3799 39.8672 36.833C39.8672 37.2861 40.2344 37.6533 40.6875 37.6533H45.573C46.0261 37.6533 46.3933 37.286 46.3933 36.833ZM39.8672 39.751C39.8672 39.2978 40.2344 38.9307 40.6875 38.9307H42.5105C42.9636 38.9307 43.3308 39.2978 43.3308 39.751C43.3308 40.2041 42.9636 40.5713 42.5105 40.5713H40.6875C40.2344 40.5713 39.8672 40.2041 39.8672 39.751ZM23.1875 37.2871H30.0052C30.4583 37.2871 30.8255 36.9199 30.8255 36.4668C30.8255 36.0137 30.4583 35.6465 30.0052 35.6465H23.1875C22.7345 35.6465 22.3672 36.0137 22.3672 36.4668C22.3672 36.9199 22.7345 37.2871 23.1875 37.2871ZM29.1484 46.5762C28.6953 46.5762 28.3281 46.209 28.3281 45.7559C28.3281 45.3027 28.6953 44.9355 29.1484 44.9355H33.2197C33.6728 44.9355 34.04 45.3027 34.04 45.7559C34.04 46.209 33.6728 46.5762 33.2197 46.5762H29.1484Z" fill="#EA570F"/>
</svg>
