<svg width="56" height="56" viewBox="0 0 56 56" fill="none" xmlns="http://www.w3.org/2000/svg">
<path d="M54.6875 1.09375H1.3125C0.95025 1.09375 0.65625 1.38775 0.65625 1.75V54.25C0.65625 54.6123 0.95025 54.9062 1.3125 54.9062H54.6875C55.0498 54.9062 55.3438 54.6123 55.3438 54.25V1.75C55.3438 1.38775 55.0498 1.09375 54.6875 1.09375ZM3.28125 53.5938H1.96875V5.03125H3.28125V53.5938ZM14.2188 53.5938H12.9062V47.0312H14.2188V53.5938ZM10.5 45.7188C10.1377 45.7188 9.84375 45.4248 9.84375 45.0625C9.84375 44.7002 10.1377 44.4062 10.5 44.4062H16.625C16.9872 44.4062 17.2812 44.7002 17.2812 45.0625C17.2812 45.4248 16.9872 45.7188 16.625 45.7188H10.5ZM28.2188 53.5938H26.9062V47.0312H28.2188V53.5938ZM24.5 45.7188C24.1378 45.7188 23.8438 45.4248 23.8438 45.0625C23.8438 44.7002 24.1378 44.4062 24.5 44.4062H30.625C30.9872 44.4062 31.2812 44.7002 31.2812 45.0625C31.2812 45.4248 30.9872 45.7188 30.625 45.7188H24.5ZM34.8101 49.2188H34.5625C34.0979 49.2188 33.7811 49.6877 33.9535 50.1191L35.3439 53.5938H29.5321V47.0312H30.6259C31.7118 47.0312 32.5946 46.1484 32.5946 45.0625C32.5946 43.9766 31.7118 43.0938 30.6259 43.0938H24.5009C23.415 43.0938 22.5321 43.9766 22.5321 45.0625C22.5321 46.1484 23.415 47.0312 24.5009 47.0312H25.5946V53.5938H15.5321V47.0312H16.6259C17.7118 47.0312 18.5946 46.1484 18.5946 45.0625C18.5946 43.9766 17.7118 43.0938 16.6259 43.0938H10.5009C9.415 43.0938 8.53213 43.9766 8.53213 45.0625C8.53213 46.1484 9.415 47.0312 10.5009 47.0312H11.5946V53.5938H4.59375V39.1562H36.5312V43.2863C35.9931 43.8708 35.6562 44.6442 35.6562 45.5C35.6562 45.9953 35.77 46.4809 35.9852 46.9219C35.259 47.3375 34.7812 48.1154 34.7812 49C34.7812 49.0744 34.8031 49.1452 34.8101 49.2188ZM9.85075 11.5938C9.96362 9.88575 11.389 8.53125 13.125 8.53125C14.861 8.53125 16.2864 9.88575 16.3993 11.5938H9.85075ZM14.973 12.9062C14.7009 13.6684 13.9799 14.2188 13.125 14.2188C12.2701 14.2188 11.5491 13.6684 11.277 12.9062H14.973ZM12.4688 7.28525C10.248 7.60725 8.53125 9.50425 8.53125 11.8125V12.25C8.53125 12.6123 8.82525 12.9062 9.1875 12.9062H9.91025C10.2148 14.4025 11.5404 15.5312 13.125 15.5312C14.7096 15.5312 16.0352 14.4025 16.3398 12.9062H17.0625C17.4247 12.9062 17.7188 12.6123 17.7188 12.25V11.8125C17.7188 9.50425 16.002 7.60725 13.7812 7.28525V5.03125H27.3438V7.28525C25.123 7.60725 23.4062 9.50425 23.4062 11.8125V12.25C23.4062 12.6123 23.7003 12.9062 24.0625 12.9062H24.7852C25.0898 14.4025 26.4154 15.5312 28 15.5312C29.5846 15.5312 30.9102 14.4025 31.2148 12.9062H31.9375C32.2997 12.9062 32.5938 12.6123 32.5938 12.25V11.8125C32.5938 9.50425 30.877 7.60725 28.6562 7.28525V5.03125H36.5312V35.2188H34.3438V31.5C34.3438 29.9154 33.215 28.5898 31.7188 28.2852V27.5625C31.7188 26.4766 30.8359 25.5938 29.75 25.5938C28.6641 25.5938 27.7812 26.4766 27.7812 27.5625V28.2188H25.5938V27.5625C25.5938 26.4766 24.7109 25.5938 23.625 25.5938C22.5391 25.5938 21.6562 26.4766 21.6562 27.5625V28.2852C20.16 28.5898 19.0312 29.9154 19.0312 31.5V35.2188H13.9431C14.1129 34.8889 14.2188 34.5205 14.2188 34.125V33.9062H14.4375C15.7649 33.9062 16.8438 32.8274 16.8438 31.5C16.8438 30.6556 16.1569 29.9688 15.3125 29.9688H8.3125C7.95025 29.9688 7.65625 30.2628 7.65625 30.625V34.125C7.65625 34.5205 7.76125 34.8889 7.93187 35.2188H4.59375V5.03125H12.4688V7.28525ZM24.7257 11.5938C24.8386 9.88575 26.264 8.53125 28 8.53125C29.736 8.53125 31.1614 9.88575 31.2743 11.5938H24.7266H24.7257ZM29.848 12.9062C29.5759 13.6684 28.8549 14.2188 28 14.2188C27.1451 14.2188 26.4241 13.6684 26.152 12.9062H29.848ZM37.492 46.8247C37.1543 46.4564 36.9688 45.9865 36.9688 45.5C36.9688 44.4141 37.8516 43.5312 38.9375 43.5312C40.0234 43.5312 40.9062 44.4141 40.9062 45.5C40.9062 45.9856 40.7207 46.4564 40.383 46.8247C40.215 47.0076 40.1651 47.2692 40.2535 47.5011C40.3419 47.733 40.5527 47.8957 40.7995 47.9211C41.3595 47.9789 41.7821 48.4426 41.7821 49C41.7821 49.0744 41.7681 49.147 41.7533 49.2188H36.1235C36.1086 49.147 36.0946 49.0744 36.0946 49C36.0946 48.4426 36.5164 47.9789 37.0773 47.9211C37.324 47.8957 37.5349 47.733 37.6233 47.5011C37.7116 47.2692 37.6609 47.0076 37.4937 46.8247H37.492ZM45.2812 27.7812V32.5938H40.4688V27.7812H45.2812ZM40.4688 26.4688V21.6562H45.2812V26.4688H40.4688ZM45.2812 33.9062V38.7188H40.4688V33.9062H45.2812ZM45.2812 40.0312V44.8438H42.1522C41.9545 43.8725 41.3184 43.0692 40.4688 42.616V40.0312H45.2812ZM31.0625 29.5312C32.1484 29.5312 33.0312 30.4141 33.0312 31.5V35.2188H20.3438V31.5C20.3438 30.4141 21.2266 29.5312 22.3125 29.5312H31.0625ZM22.9688 28.2188V27.5625C22.9688 27.2003 23.2628 26.9062 23.625 26.9062C23.9872 26.9062 24.2812 27.2003 24.2812 27.5625V28.2188H22.9688ZM29.0938 28.2188V27.5625C29.0938 27.2003 29.3878 26.9062 29.75 26.9062C30.1122 26.9062 30.4062 27.2003 30.4062 27.5625V28.2188H29.0938ZM14.2188 32.5938V31.2812H15.3125C15.4333 31.2812 15.5312 31.3792 15.5312 31.5C15.5312 32.1029 15.0404 32.5938 14.4375 32.5938H14.2188ZM12.9062 31.2812V34.125C12.9062 34.7279 12.4154 35.2188 11.8125 35.2188H10.0625C9.45963 35.2188 8.96875 34.7279 8.96875 34.125V31.2812H12.9062ZM36.5312 36.5312V37.8438H4.59375V36.5312H36.5312ZM41.118 53.5938H36.757L35.532 50.5312H42.343L41.118 53.5938ZM41.8889 46.9219C42.0079 46.6786 42.0875 46.4205 42.1426 46.1562H45.2804V50.9688H43.5811L43.9215 50.1191C44.0939 49.6877 43.7762 49.2188 43.3125 49.2188H43.0649C43.0719 49.1452 43.0938 49.0744 43.0938 49C43.0938 48.1154 42.6143 47.3375 41.8889 46.9219ZM54.0304 53.5938H42.5311L43.0561 52.2812H52.0616C52.4239 52.2812 52.7179 51.9873 52.7179 51.625V21C52.7179 20.6378 52.4239 20.3438 52.0616 20.3438H39.8116C39.4494 20.3438 39.1554 20.6378 39.1554 21V42.2406C39.0819 42.2354 39.0119 42.2188 38.9366 42.2188C38.5516 42.2188 38.1868 42.2975 37.8429 42.42V19.0312H54.0304V53.5938ZM51.4054 27.7812V32.5938H46.5929V27.7812H51.4054ZM46.5929 26.4688V21.6562H51.4054V26.4688H46.5929ZM51.4054 33.9062V38.7188H46.5929V33.9062H51.4054ZM51.4054 40.0312V44.8438H46.5929V40.0312H51.4054ZM51.4054 46.1562V50.9688H46.5929V46.1562H51.4054ZM54.0304 17.7188H37.8429V5.03125H54.0304V17.7188ZM54.0304 3.71875H1.96875V2.40625H54.0312L54.0304 3.71875Z" fill="#EA570F"/>
<path d="M48.876 14.3138C51.2184 11.9715 51.7617 8.84684 50.1132 7.19834C48.4656 5.55072 45.3401 6.09409 42.9977 8.43559C40.6554 10.7771 40.112 13.9026 41.7605 15.5511C43.409 17.1996 46.5336 16.6553 48.876 14.3138ZM47.9476 13.3855C46.3227 15.0103 44.1589 15.6001 42.9759 14.8275C43.4099 13.4012 44.5797 12.3153 46.0655 12.0178C47.644 11.702 48.9565 10.7141 49.7107 9.35872C49.8332 10.5592 49.1997 12.1325 47.9476 13.3846V13.3855ZM43.9261 9.36397C45.551 7.73909 47.7149 7.14934 48.8979 7.92197C48.463 9.34909 47.2931 10.4341 45.8082 10.7316C44.2297 11.0475 42.9172 12.0362 42.163 13.3898C42.0405 12.1893 42.674 10.6161 43.9261 9.36397Z" fill="#EA570F"/>
</svg>
