<svg width="56" height="56" viewBox="0 0 56 56" fill="none" xmlns="http://www.w3.org/2000/svg">
<g clip-path="url(#clip0_1174_443)">
<path d="M45.9254 7.36548C44.7029 7.03637 43.4247 7.20513 42.3267 7.8406C40.0635 9.15059 39.2793 12.0614 40.5785 14.3295C41.2085 15.4294 42.2283 16.2162 43.4502 16.5452C43.8587 16.6552 44.2733 16.7096 44.6854 16.7096C45.5067 16.7096 46.3179 16.4934 47.0491 16.0702C49.3123 14.7602 50.0965 11.8494 48.7973 9.58131C48.1672 8.48132 47.1472 7.69448 45.9254 7.36548ZM46.2271 14.6502C45.5094 15.0654 44.6748 15.1757 43.8767 14.961C43.0792 14.7463 42.4134 14.2325 42.0019 13.5141C41.1504 12.0274 41.6647 10.1193 43.1483 9.26051C43.6264 8.9839 44.1564 8.84259 44.693 8.84259C44.9619 8.84259 45.2325 8.87803 45.4987 8.94967C46.2961 9.16437 46.962 9.67821 47.3736 10.3966C48.2252 11.8834 47.7109 13.7915 46.2271 14.6502Z" fill="#EA570F"/>
<path d="M55.357 14.4566L53.8316 13.1423C53.9518 12.2378 53.9382 11.3307 53.7913 10.4349L55.2286 9.20161C55.8645 8.65594 56.0241 7.73238 55.6079 7.00558L54.2883 4.70203C53.8702 3.97228 52.9913 3.64602 52.1988 3.92634L50.3024 4.5967C49.5857 4.04644 48.7976 3.60883 47.9495 3.29033L47.6072 1.42767C47.4554 0.60025 46.7356 0 45.8961 0C45.896 0 45.8957 0 45.8956 0L43.2453 0.000328125C42.4076 0.000546875 41.6864 0.599484 41.5308 1.42428L41.1555 3.41228C40.3298 3.75856 39.5355 4.2373 38.8427 4.8067L37.0661 4.17802C36.2756 3.89845 35.3963 4.2233 34.9756 4.9513L33.6448 7.25506C33.2249 7.98186 33.3807 8.90608 34.0153 9.45273L35.5408 10.7671C35.4207 11.6715 35.4341 12.5786 35.5811 13.4745L34.1438 14.7078C33.5079 15.2534 33.3484 16.177 33.7645 16.9038L35.0839 19.2072C35.5019 19.937 36.3804 20.2635 37.1735 19.983L39.07 19.3127C39.7867 19.8629 40.5749 20.3005 41.4229 20.619L41.7651 22.4819C41.9171 23.3091 42.637 23.9094 43.4767 23.9094L46.1271 23.909C46.9648 23.9088 47.6858 23.3099 47.8415 22.485L48.2167 20.497C49.0421 20.1506 49.837 19.672 50.5295 19.1026L52.3064 19.7313C53.097 20.011 53.9763 19.6856 54.3966 18.958L55.7276 16.6541C56.1474 15.9274 55.9914 15.0033 55.357 14.4566ZM54.307 15.8335L52.976 18.1373C52.9509 18.181 52.8994 18.2007 52.8536 18.1847L50.6267 17.3966C50.3406 17.2954 50.0221 17.3603 49.7987 17.5653C49.0523 18.2495 48.1698 18.7833 47.2173 19.1262C46.9438 19.2245 46.7429 19.4603 46.6889 19.7459L46.2294 22.1808C46.2198 22.2316 46.1767 22.2684 46.1269 22.2684L43.4767 22.2688C43.4288 22.2688 43.3877 22.2336 43.3787 22.1853L42.9501 19.852C42.8951 19.5534 42.6797 19.3094 42.3902 19.218C41.4182 18.9112 40.5339 18.4214 39.762 17.7623C39.5066 17.5674 39.238 17.5175 38.9559 17.6128L36.6266 18.436C36.581 18.4523 36.5319 18.4341 36.5076 18.3917L35.1883 16.0883C35.1627 16.0437 35.1726 15.9866 35.2122 15.9527L37.0101 14.4098C37.2394 14.2132 37.3419 13.9065 37.2772 13.6115C37.059 12.6171 37.0428 11.6014 37.229 10.5926C37.2819 10.3059 37.1787 10.0125 36.9578 9.82231L35.0862 8.2098C35.0481 8.17698 35.0394 8.12066 35.0654 8.0757L36.3963 5.77194C36.4215 5.72841 36.473 5.70861 36.5188 5.72447L38.7458 6.51252C39.0316 6.61358 39.3502 6.54872 39.5739 6.34375C40.3199 5.65961 41.2026 5.12542 42.1549 4.78297C42.4284 4.68464 42.6295 4.44883 42.6834 4.16325L43.143 1.72823C43.1525 1.67748 43.1957 1.64063 43.2456 1.64063H45.896C45.9438 1.64063 45.9848 1.67563 45.9936 1.72408L46.4224 4.05738C46.4773 4.35597 46.6928 4.59998 46.9823 4.69142C47.9545 4.99833 48.8388 5.488 49.6104 6.14709C49.8331 6.33708 50.1403 6.39417 50.4165 6.29661L52.7458 5.47323C52.7919 5.45705 52.8405 5.47542 52.8648 5.51764L54.1842 7.82108C54.2098 7.8657 54.1998 7.9228 54.1602 7.9567L52.3623 9.49955C52.1331 9.6962 52.0306 10.0029 52.0952 10.2979C52.3133 11.2921 52.3296 12.3078 52.1434 13.3167C52.0904 13.6035 52.1937 13.8969 52.4145 14.0871L54.2861 15.6996C54.3241 15.7323 54.3328 15.7887 54.307 15.8335Z" fill="#EA570F"/>
<path d="M11.9023 29.5449C11.9018 28.0879 10.6927 26.8 9.21361 26.8067L8.75183 26.8055L8.74844 17.5C8.74724 16.2541 7.10399 16.2973 7.10803 17.7096L7.11121 26.8012C6.32578 26.7992 5.54025 26.7971 4.75483 26.795L4.74313 12.7355C4.74302 12.5902 4.7043 12.4474 4.63102 12.3221L2.67758 8.98166L2.67649 4.57548L9.16199 4.60567L9.16308 8.95902L7.21085 12.3149C7.13778 12.4403 7.09939 12.5828 7.0995 12.728L7.10399 18.1363C7.10399 19.4203 8.74472 19.5 8.74472 18.3294L8.74035 12.9484L10.6925 9.59273C10.7654 9.46739 10.8038 9.32498 10.8038 9.18006L10.8016 0.820094C10.8016 0.397031 10.4109 0 9.97891 0L1.85278 0.0237344C1.40796 0.0249375 1.03564 0.397141 1.03488 0.842187L1.03707 9.20423C1.03707 9.3497 1.07578 9.49255 1.14917 9.61811L3.10272 12.9587L3.11421 26.7906L2.65177 26.7894C-0.542091 26.7986 -0.949075 31.7257 2.19174 32.2735L2.16505 48.6267C2.15794 53.6359 9.68196 53.5977 9.68874 48.6461L9.71553 32.2447C10.9592 32.0012 11.9027 30.8824 11.9023 29.5449ZM2.67605 2.93486L2.67572 1.66195L9.16111 1.64292L9.16144 2.96505L2.67605 2.93486ZM5.93685 50.842C4.76796 50.842 3.80403 49.7746 3.80567 48.6294L3.83236 32.3105L8.0748 32.2981L8.04811 48.6438C8.04647 49.8524 7.09928 50.8386 5.93685 50.842ZM9.21011 30.6541L2.65264 30.6732C1.32603 30.6732 1.33752 28.4339 2.65199 28.4302L9.21383 28.4473C10.5302 28.4473 10.5396 30.6502 9.21011 30.6541Z" fill="#EA570F"/>
<path d="M52.5187 46.4959L52.517 42.8689C52.5146 36.9141 49.8255 31.3581 45.1395 27.6254C44.6716 27.2526 43.8819 27.2147 43.3751 27.5412C41.585 26.3258 39.6236 25.444 37.5269 24.9137C37.6096 24.4736 37.5204 23.8679 37.0846 23.6414C34.4749 22.2856 31.3593 22.2867 28.7509 23.6449C28.3152 23.8718 28.2266 24.4781 28.3097 24.9183C27.3477 25.1624 26.414 25.4804 25.5124 25.8708L25.5927 16.2124C28.935 15.3834 30.7002 13.2239 30.7097 9.9327C30.7204 6.28723 28.5564 2.08952 25.6762 0.168681C24.9799 -0.113178 24.5548 0.113447 24.4008 0.848775L24.3809 7.66677C24.3509 8.03351 24.156 8.23542 23.7961 8.2726L20.3365 8.25532C20.0132 8.25368 19.751 7.97784 19.752 7.6402L19.7718 0.822087C19.6227 0.0871968 19.1997 -0.142381 18.5024 0.133353C15.61 2.0262 13.4207 6.20334 13.4101 9.84968C13.4006 13.1379 15.1513 15.3136 18.4846 16.1761L18.3939 29.7972C15.1474 33.3647 13.3327 37.9906 13.3348 42.8853L13.3363 46.5031C10.1016 47.4907 10.7271 52.4425 14.1853 52.4425C16.6049 52.4425 18.8675 53.1619 20.9796 54.2961C23.1005 55.4105 25.4886 55.9995 27.886 55.9995H27.8922L37.9707 55.9952C40.3704 55.9941 42.7602 55.4032 44.8819 54.2861C46.9921 53.1389 49.2534 52.4277 51.6734 52.4267C55.0845 52.4254 55.8072 47.4564 52.5187 46.4959ZM42.6858 29.0581L42.6898 43.0002C42.69 43.4532 43.0572 43.8201 43.5101 43.8201C43.9633 43.8199 44.3307 43.4525 44.3304 42.9995L44.3264 29.0777C48.4904 32.495 50.8742 37.5062 50.8765 42.8697L50.8782 46.3676H44.3338L44.3323 43.0381C44.3321 42.5851 43.9649 42.2181 43.512 42.2181C43.0588 42.2183 42.6914 42.5857 42.6917 43.0388L42.6931 46.3677H37.5361L37.5277 26.6113C39.3768 27.1273 41.1064 27.9479 42.6858 29.0581ZM35.8864 24.886L35.8954 46.3675H29.9595L29.9505 24.8884C31.8398 24.0591 33.9962 24.0583 35.8864 24.886ZM28.3188 46.3676H23.1619L23.1546 29.0663C24.716 27.9667 26.4718 27.1307 28.3105 26.6158L28.3188 46.3676ZM15.0509 9.85449C15.0582 7.32979 16.3344 4.42063 18.1261 2.57285L18.1115 7.63549C18.1079 8.87592 19.1024 9.88993 20.3285 9.89606L23.7882 9.91334C24.9841 9.91334 26.0182 8.86465 26.0216 7.67159L26.0364 2.61496C27.8175 4.48123 29.0767 7.40318 29.0692 9.9281C29.0615 12.6157 27.6089 14.1907 24.6285 14.7429C24.2422 14.8144 23.9609 15.1498 23.9576 15.5426L23.8648 26.6834C23.3869 26.9499 22.9201 27.2397 22.4637 27.5501C21.957 27.224 21.1671 27.2623 20.6996 27.6357C20.4765 27.8138 20.2594 27.9972 20.0454 28.1834L20.1296 15.5277C20.1321 15.1334 19.8538 14.7928 19.4666 14.7172C16.4874 14.1344 15.043 12.5439 15.0509 9.85449ZM21.5138 29.0872L21.5211 46.3675H14.9768L14.9753 42.8846C14.9732 37.5213 17.3527 32.508 21.5138 29.0872ZM52.6857 50.3567C52.4184 50.6334 52.0585 50.7859 51.6727 50.7861C48.9902 50.7872 46.4627 51.5749 44.1175 52.8344C42.2304 53.8281 40.1047 54.3538 37.9701 54.3546L27.8916 54.3589C27.8895 54.3589 27.886 54.3589 27.886 54.3589C25.7535 54.3587 23.6291 53.8349 21.7427 52.8437C19.4705 51.6285 16.8088 50.6561 14.1853 50.8019C12.3472 50.8019 12.383 48.0089 14.2426 48.0081H22.3418H29.1393H36.7159H43.5135H51.6129C52.7695 48.0771 53.5888 49.422 52.6857 50.3567Z" fill="#EA570F"/>
</g>
<defs>
<clipPath id="clip0_1174_443">
<rect width="56" height="56" fill="white"/>
</clipPath>
</defs>
</svg>
