<svg width="56" height="56" viewBox="0 0 56 56" fill="none" xmlns="http://www.w3.org/2000/svg">
<g clip-path="url(#clip0_1174_433)">
<path d="M54.25 13.125H52.8062L49.2231 10.2585C46.028 7.70289 43.2469 4.66908 40.978 1.26438C40.8981 1.14457 40.7898 1.04635 40.6628 0.978429C40.5358 0.910506 40.394 0.874978 40.25 0.875H15.75C15.606 0.874978 15.4642 0.910506 15.3372 0.978429C15.2102 1.04635 15.1019 1.14457 15.022 1.26438C12.7531 4.66908 9.97197 7.70289 6.77688 10.2585L3.19375 13.125H1.75C1.51794 13.125 1.29538 13.2172 1.13128 13.3813C0.967187 13.5454 0.875 13.7679 0.875 14V17.5C0.875 17.7321 0.967187 17.9546 1.13128 18.1187C1.29538 18.2828 1.51794 18.375 1.75 18.375H4.375V34.125H3.5C3.26794 34.125 3.04538 34.2172 2.88128 34.3813C2.71719 34.5454 2.625 34.7679 2.625 35V38.5C2.625 38.7321 2.71719 38.9546 2.88128 39.1187C3.04538 39.2828 3.26794 39.375 3.5 39.375H4.375V54.25C4.375 54.4821 4.46719 54.7046 4.63128 54.8687C4.79538 55.0328 5.01794 55.125 5.25 55.125H50.75C50.9821 55.125 51.2046 55.0328 51.3687 54.8687C51.5328 54.7046 51.625 54.4821 51.625 54.25V39.375H52.5C52.7321 39.375 52.9546 39.2828 53.1187 39.1187C53.2828 38.9546 53.375 38.7321 53.375 38.5V35C53.375 34.7679 53.2828 34.5454 53.1187 34.3813C52.9546 34.2172 52.7321 34.125 52.5 34.125H51.625V18.375H54.25C54.4821 18.375 54.7046 18.2828 54.8687 18.1187C55.0328 17.9546 55.125 17.7321 55.125 17.5V14C55.125 13.7679 55.0328 13.5454 54.8687 13.3813C54.7046 13.2172 54.4821 13.125 54.25 13.125ZM48.1302 11.6252L50.0054 13.125H41.125V4.43887C43.1605 7.10909 45.5129 9.52222 48.1302 11.6252ZM16.625 2.625H39.375V13.125H16.625V2.625ZM7.86975 11.6252C10.4871 9.52222 12.8394 7.10909 14.875 4.43887V13.125H5.99463L7.86975 11.6252ZM6.125 18.375H7.875V34.125H6.125V18.375ZM16.625 22.75C16.625 22.9231 16.5737 23.0922 16.4775 23.2361C16.3814 23.38 16.2447 23.4922 16.0848 23.5584C15.925 23.6246 15.749 23.6419 15.5793 23.6082C15.4096 23.5744 15.2537 23.4911 15.1313 23.3687C15.0089 23.2463 14.9256 23.0904 14.8918 22.9207C14.8581 22.751 14.8754 22.575 14.9416 22.4152C15.0078 22.2553 15.12 22.1186 15.2639 22.0225C15.4078 21.9263 15.5769 21.875 15.75 21.875C15.9821 21.875 16.2046 21.9672 16.3687 22.1313C16.5328 22.2954 16.625 22.5179 16.625 22.75ZM14.875 20.286C14.2912 20.4924 13.7991 20.8986 13.4858 21.4327C13.1725 21.9668 13.0581 22.5945 13.1628 23.2048C13.2675 23.8151 13.5846 24.3687 14.058 24.7678C14.5315 25.167 15.1308 25.3859 15.75 25.3859C16.3692 25.3859 16.9685 25.167 17.442 24.7678C17.9154 24.3687 18.2325 23.8151 18.3372 23.2048C18.4419 22.5945 18.3275 21.9668 18.0142 21.4327C17.7009 20.8986 17.2088 20.4924 16.625 20.286V18.375H27.125V20.286C26.5412 20.4924 26.0491 20.8986 25.7358 21.4327C25.4225 21.9668 25.3081 22.5945 25.4128 23.2048C25.5175 23.8151 25.8346 24.3687 26.308 24.7678C26.7815 25.167 27.3808 25.3859 28 25.3859C28.6192 25.3859 29.2185 25.167 29.692 24.7678C30.1654 24.3687 30.4825 23.8151 30.5872 23.2048C30.6919 22.5945 30.5775 21.9668 30.2642 21.4327C29.9509 20.8986 29.4588 20.4924 28.875 20.286V18.375H39.375V20.286C38.7912 20.4924 38.2991 20.8986 37.9858 21.4327C37.6725 21.9668 37.5581 22.5945 37.6628 23.2048C37.7675 23.8151 38.0846 24.3687 38.558 24.7678C39.0315 25.167 39.6308 25.3859 40.25 25.3859C40.8692 25.3859 41.4685 25.167 41.942 24.7678C42.4154 24.3687 42.7325 23.8151 42.8372 23.2048C42.9419 22.5945 42.8275 21.9668 42.5142 21.4327C42.2009 20.8986 41.7088 20.4924 41.125 20.286V18.375H46.375V34.125H9.625V18.375H14.875V20.286ZM28.875 22.75C28.875 22.9231 28.8237 23.0922 28.7275 23.2361C28.6314 23.38 28.4947 23.4922 28.3348 23.5584C28.175 23.6246 27.999 23.6419 27.8293 23.6082C27.6596 23.5744 27.5037 23.4911 27.3813 23.3687C27.2589 23.2463 27.1756 23.0904 27.1418 22.9207C27.1081 22.751 27.1254 22.575 27.1916 22.4152C27.2578 22.2553 27.37 22.1186 27.5139 22.0225C27.6578 21.9263 27.8269 21.875 28 21.875C28.2321 21.875 28.4546 21.9672 28.6187 22.1313C28.7828 22.2954 28.875 22.5179 28.875 22.75ZM41.125 22.75C41.125 22.9231 41.0737 23.0922 40.9775 23.2361C40.8814 23.38 40.7447 23.4922 40.5848 23.5584C40.425 23.6246 40.249 23.6419 40.0793 23.6082C39.9096 23.5744 39.7537 23.4911 39.6313 23.3687C39.5089 23.2463 39.4256 23.0904 39.3918 22.9207C39.3581 22.751 39.3754 22.575 39.4416 22.4152C39.5078 22.2553 39.62 22.1186 39.7639 22.0225C39.9078 21.9263 40.0769 21.875 40.25 21.875C40.4821 21.875 40.7046 21.9672 40.8687 22.1313C41.0328 22.2954 41.125 22.5179 41.125 22.75ZM6.125 39.375H11.375V53.375H6.125V39.375ZM36.75 43.75C37.4462 43.75 38.1139 44.0266 38.6062 44.5188C39.0984 45.0111 39.375 45.6788 39.375 46.375C39.375 47.0712 39.0984 47.7389 38.6062 48.2312C38.1139 48.7234 37.4462 49 36.75 49H19.25C18.5538 49 17.8861 48.7234 17.3938 48.2312C16.9016 47.7389 16.625 47.0712 16.625 46.375C16.625 45.6788 16.9016 45.0111 17.3938 44.5188C17.8861 44.0266 18.5538 43.75 19.25 43.75H36.75ZM19.25 50.75H21.875V53.375H18.375V50.6625C18.663 50.721 18.9561 50.7503 19.25 50.75ZM23.625 50.75H27.125V53.375H23.625V50.75ZM28.875 50.75H32.375V53.375H28.875V50.75ZM34.125 50.75H36.75C37.0439 50.7503 37.337 50.721 37.625 50.6625V53.375H34.125V50.75ZM39.375 49.8522C39.9181 49.4494 40.3593 48.925 40.6633 48.3211C40.9673 47.7171 41.1257 47.0503 41.1257 46.3741C41.1257 45.6979 40.9673 45.0312 40.6633 44.4272C40.3593 43.8232 39.9181 43.2988 39.375 42.896V39.375H42.875V53.375H39.375V49.8522ZM37.625 42.0875C37.337 42.0289 37.0439 41.9996 36.75 42H34.125V39.375H37.625V42.0875ZM32.375 42H28.875V39.375H32.375V42ZM27.125 42H23.625V39.375H27.125V42ZM21.875 42H19.25C18.9561 41.9997 18.663 42.029 18.375 42.0875V39.375H21.875V42ZM16.625 42.8986C16.0822 43.3014 15.6413 43.8256 15.3375 44.4294C15.0337 45.0331 14.8755 45.6996 14.8755 46.3754C14.8755 47.0513 15.0337 47.7178 15.3375 48.3215C15.6413 48.9253 16.0822 49.4495 16.625 49.8522V53.375H13.125V39.375H16.625V42.8986ZM49.875 53.375H44.625V39.375H49.875V53.375ZM51.625 37.625H4.375V35.875H51.625V37.625ZM49.875 34.125H48.125V18.375H49.875V34.125ZM53.375 16.625H2.625V14.875H53.375V16.625Z" fill="#EA570F"/>
<path d="M37.5 45.5H18.375V47.25H37.5V45.5Z" fill="#EA570F"/>
</g>
<defs>
<clipPath id="clip0_1174_433">
<rect width="56" height="56" fill="white"/>
</clipPath>
</defs>
</svg>
