<svg width="56" height="56" viewBox="0 0 56 56" fill="none" xmlns="http://www.w3.org/2000/svg">
<path d="M38.2176 54.9068H17.7776C17.6035 54.9068 17.4366 54.8377 17.3135 54.7146C17.1905 54.5915 17.1213 54.4246 17.1213 54.2506V51.1881C17.1201 51.1016 17.1363 51.0157 17.1689 50.9356C17.2014 50.8554 17.2497 50.7826 17.3109 50.7214C17.3721 50.6602 17.4449 50.6119 17.5251 50.5794C17.6052 50.5468 17.6911 50.5307 17.7776 50.5318H21.1463V46.4543H4.84508C4.05374 46.4543 3.29481 46.14 2.73525 45.5804C2.17569 45.0208 1.86133 44.2619 1.86133 43.4706V15.3568C1.86133 14.5864 2.16739 13.8475 2.71218 13.3027C3.25698 12.7579 3.99587 12.4518 4.76633 12.4518H21.6013V7.77058C21.6013 7.77058 21.6013 7.72683 21.6013 7.70058C21.5975 7.59096 21.6202 7.48203 21.6674 7.38303C21.7146 7.28403 21.785 7.19786 21.8726 7.13183L31.2263 1.19933C31.3317 1.13044 31.4548 1.09375 31.5807 1.09375C31.7066 1.09375 31.8297 1.13044 31.9351 1.19933L41.2626 7.13183C41.357 7.18936 41.4348 7.27041 41.4885 7.36703C41.5422 7.46365 41.5698 7.57255 41.5688 7.68308C41.5731 7.70328 41.5731 7.72414 41.5688 7.74433V12.4343H51.1938C51.5753 12.4343 51.9531 12.5095 52.3055 12.6555C52.658 12.8015 52.9782 13.0154 53.248 13.2852C53.5177 13.5549 53.7317 13.8752 53.8777 14.2276C54.0237 14.5801 54.0988 14.9578 54.0988 15.3393V43.4706C54.0988 44.2619 53.7845 45.0208 53.2249 45.5804C52.6653 46.14 51.9064 46.4543 51.1151 46.4543H34.8488V50.5318H38.2176C38.3041 50.5307 38.3899 50.5468 38.4701 50.5794C38.5503 50.6119 38.6231 50.6602 38.6842 50.7214C38.7454 50.7826 38.7937 50.8554 38.8263 50.9356C38.8588 51.0157 38.875 51.1016 38.8738 51.1881V54.2506C38.8738 54.4246 38.8047 54.5915 38.6816 54.7146C38.5585 54.8377 38.3916 54.9068 38.2176 54.9068ZM18.4338 53.5943H37.5613V51.8443H18.4338V53.5943ZM22.4588 50.5318H33.5363V46.4543H22.4588V50.5318ZM34.1926 45.1418H51.1501C51.5926 45.1395 52.0164 44.9627 52.3293 44.6498C52.6422 44.3369 52.819 43.9131 52.8213 43.4706V41.7206H3.17383V43.4706C3.17613 43.9131 3.35294 44.3369 3.66587 44.6498C3.97879 44.9627 4.40254 45.1395 4.84508 45.1418H34.1926ZM10.3401 40.3818H52.8213V15.3568C52.819 14.9352 52.6505 14.5315 52.3524 14.2333C52.0542 13.9351 51.6505 13.7666 51.2288 13.7643H41.6038V18.5331C41.604 18.6437 41.577 18.7526 41.5251 18.8503C41.4732 18.9479 41.3981 19.0313 41.3063 19.0931L31.9351 25.0256C31.8695 25.0623 31.7987 25.0888 31.7251 25.1043H31.5851C31.5356 25.1005 31.4858 25.1005 31.4363 25.1043C31.3724 25.0888 31.3107 25.0653 31.2526 25.0343L21.8726 19.0931C21.7781 19.0335 21.7004 18.9508 21.6468 18.8528C21.5932 18.7548 21.5655 18.6448 21.5663 18.5331V13.7643H10.3401V40.3818ZM3.17383 40.3818H9.02758V13.7643H4.76633C4.34468 13.7666 3.94095 13.9351 3.6428 14.2333C3.34464 14.5315 3.17613 14.9352 3.17383 15.3568V40.3818ZM32.2413 14.0006V23.2756L40.2476 18.1743V8.89933L32.2413 14.0006ZM22.9138 18.1743L30.9288 23.2756V14.0006L22.9138 8.90808V18.1743ZM29.4413 11.4981L31.5851 12.8543L39.6963 7.69183L31.5851 2.52933L23.4651 7.69183L29.4413 11.4981ZM46.7838 38.5006H16.3776C16.2035 38.5006 16.0366 38.4314 15.9135 38.3084C15.7905 38.1853 15.7213 38.0184 15.7213 37.8443V35.0968C15.7236 34.9235 15.7935 34.7579 15.916 34.6353C16.0386 34.5127 16.2042 34.4428 16.3776 34.4406H46.7838C46.9572 34.4428 47.1228 34.5127 47.2454 34.6353C47.3679 34.7579 47.4378 34.9235 47.4401 35.0968V37.8618C47.4355 38.0328 47.3644 38.1953 47.2418 38.3146C47.1192 38.4339 46.9549 38.5006 46.7838 38.5006ZM17.0338 37.1881H46.1276V35.7531H17.0338V37.1881ZM6.12258 37.9493C5.65845 37.9493 5.21333 37.765 4.88514 37.4368C4.55695 37.1086 4.37258 36.6635 4.37258 36.1993C4.37258 35.7352 4.55695 35.2901 4.88514 34.9619C5.21333 34.6337 5.65845 34.4493 6.12258 34.4493C6.58671 34.4493 7.03183 34.6337 7.36001 34.9619C7.6882 35.2901 7.87258 35.7352 7.87258 36.1993C7.87258 36.6635 7.6882 37.1086 7.36001 37.4368C7.03183 37.765 6.58671 37.9493 6.12258 37.9493ZM6.12258 35.7531C6.02151 35.7734 5.93059 35.8281 5.86527 35.9078C5.79996 35.9876 5.76426 36.0875 5.76426 36.1906C5.76426 36.2937 5.79996 36.3936 5.86527 36.4733C5.93059 36.5531 6.02151 36.6078 6.12258 36.6281C6.17963 36.631 6.23664 36.6214 6.28963 36.6001C6.34263 36.5788 6.39034 36.5462 6.42947 36.5045C6.4686 36.4629 6.4982 36.4133 6.51622 36.359C6.53424 36.3048 6.54025 36.2473 6.53383 36.1906C6.53878 36.1341 6.53174 36.0772 6.51318 36.0237C6.49462 35.9701 6.46496 35.9211 6.42614 35.8798C6.38731 35.8385 6.3402 35.8058 6.28789 35.784C6.23558 35.7622 6.17924 35.7516 6.12258 35.7531ZM6.12258 33.3906C5.65845 33.3906 5.21333 33.2062 4.88514 32.878C4.55695 32.5498 4.37258 32.1047 4.37258 31.6406C4.37258 31.1765 4.55695 30.7313 4.88514 30.4031C5.21333 30.075 5.65845 29.8906 6.12258 29.8906C6.58671 29.8906 7.03183 30.075 7.36001 30.4031C7.6882 30.7313 7.87258 31.1765 7.87258 31.6406C7.87258 32.1047 7.6882 32.5498 7.36001 32.878C7.03183 33.2062 6.58671 33.3906 6.12258 33.3906ZM6.12258 31.1943C6.06404 31.1916 6.0056 31.2014 5.95118 31.2232C5.89675 31.2449 5.84759 31.278 5.80699 31.3202C5.7664 31.3625 5.7353 31.4129 5.71578 31.4682C5.69626 31.5234 5.68878 31.5822 5.69383 31.6406C5.68845 31.6994 5.69607 31.7586 5.71615 31.8142C5.73624 31.8697 5.76829 31.9201 5.81004 31.9619C5.85179 32.0036 5.90222 32.0357 5.95774 32.0558C6.01327 32.0758 6.07253 32.0835 6.13133 32.0781C6.18838 32.081 6.24539 32.0714 6.29838 32.0501C6.35138 32.0288 6.39909 31.9961 6.43822 31.9545C6.47735 31.9129 6.50695 31.8633 6.52497 31.809C6.54299 31.7548 6.549 31.6973 6.54258 31.6406C6.54898 31.5827 6.54274 31.524 6.52427 31.4688C6.5058 31.4135 6.47555 31.3629 6.43562 31.3205C6.39568 31.278 6.34701 31.2448 6.29296 31.223C6.23891 31.2012 6.18078 31.1914 6.12258 31.1943ZM29.9051 31.2381C29.7318 31.2343 29.5663 31.1656 29.4413 31.0456C29.3184 30.9225 29.2494 30.7557 29.2494 30.5818C29.2494 30.4079 29.3184 30.2411 29.4413 30.1181L30.0363 29.5231C23.9988 29.2343 17.4013 26.8981 16.2551 23.2231C15.8088 21.7968 16.0101 19.6093 19.4838 17.2818C19.6285 17.2031 19.7975 17.1816 19.9573 17.2217C20.1171 17.2618 20.256 17.3605 20.3463 17.4982C20.4367 17.636 20.472 17.8027 20.4451 17.9652C20.4182 18.1278 20.3312 18.2742 20.2013 18.3756C18.6526 19.4168 16.9288 21.0006 17.4888 22.8468C18.3638 25.6206 23.8763 27.9306 29.9663 28.2193L29.4238 27.6768C29.3009 27.5538 29.2319 27.387 29.2319 27.2131C29.2319 27.0392 29.3009 26.8724 29.4238 26.7493C29.4842 26.6874 29.5563 26.6382 29.6359 26.6046C29.7156 26.571 29.8011 26.5537 29.8876 26.5537C29.974 26.5537 30.0596 26.571 30.1392 26.6046C30.2189 26.6382 30.291 26.6874 30.3513 26.7493L31.9963 28.3943C32.0712 28.4545 32.1319 28.5303 32.1742 28.6165C32.2166 28.7027 32.2395 28.7971 32.2413 28.8931C32.2402 28.9917 32.2178 29.089 32.1755 29.1781C32.1332 29.2672 32.072 29.3461 31.9963 29.4093L30.3513 31.0543C30.2259 31.1727 30.06 31.2384 29.8876 31.2381H29.9051ZM34.2801 29.4356C34.106 29.4356 33.9391 29.3664 33.816 29.2434C33.693 29.1203 33.6238 28.9534 33.6238 28.7793C33.6238 28.6053 33.693 28.4384 33.816 28.3153C33.9391 28.1922 34.106 28.1231 34.2801 28.1231C40.0376 27.6943 45.0776 25.3143 45.7601 22.6981C46.2238 20.9481 44.5351 19.3643 43.0388 18.3231C42.9592 18.2797 42.8893 18.2203 42.8338 18.1486C42.7783 18.0769 42.7382 17.9944 42.7161 17.9064C42.694 17.8184 42.6904 17.7268 42.7055 17.6374C42.7207 17.5479 42.7542 17.4626 42.8039 17.3868C42.8537 17.3109 42.9186 17.2462 42.9946 17.1967C43.0707 17.1472 43.1561 17.114 43.2456 17.0993C43.3351 17.0845 43.4267 17.0884 43.5146 17.1108C43.6025 17.1332 43.6848 17.1735 43.7563 17.2293C47.1251 19.4606 47.3963 21.6043 47.0288 22.9868C46.0751 26.6443 39.9413 28.9718 34.3763 29.3918L34.2801 29.4356ZM6.12258 28.8756C5.65845 28.8756 5.21333 28.6912 4.88514 28.363C4.55695 28.0348 4.37258 27.5897 4.37258 27.1256C4.37258 26.6615 4.55695 26.2163 4.88514 25.8881C5.21333 25.56 5.65845 25.3756 6.12258 25.3756C6.58671 25.3756 7.03183 25.56 7.36001 25.8881C7.6882 26.2163 7.87258 26.6615 7.87258 27.1256C7.87258 27.5897 7.6882 28.0348 7.36001 28.363C7.03183 28.6912 6.58671 28.8756 6.12258 28.8756ZM6.12258 26.6793C6.06404 26.6766 6.0056 26.6864 5.95118 26.7082C5.89675 26.7299 5.84759 26.763 5.80699 26.8052C5.7664 26.8475 5.7353 26.8979 5.71578 26.9532C5.69626 27.0084 5.68878 27.0672 5.69383 27.1256C5.68845 27.1844 5.69607 27.2436 5.71615 27.2992C5.73624 27.3547 5.76829 27.4051 5.81004 27.4469C5.85179 27.4886 5.90222 27.5207 5.95774 27.5408C6.01327 27.5608 6.07253 27.5685 6.13133 27.5631C6.18838 27.566 6.24539 27.5564 6.29838 27.5351C6.35138 27.5138 6.39909 27.4811 6.43822 27.4395C6.47735 27.3979 6.50695 27.3483 6.52497 27.294C6.54299 27.2398 6.549 27.1823 6.54258 27.1256C6.55635 27.0644 6.55565 27.0009 6.54053 26.9401C6.52542 26.8793 6.4963 26.8228 6.45551 26.7752C6.41472 26.7276 6.36338 26.6902 6.30558 26.666C6.24778 26.6417 6.18511 26.6313 6.12258 26.6356V26.6793ZM6.12258 24.3256C5.65845 24.3256 5.21333 24.1412 4.88514 23.813C4.55695 23.4848 4.37258 23.0397 4.37258 22.5756C4.36529 22.3438 4.40557 22.113 4.49094 21.8974C4.57631 21.6817 4.70495 21.4859 4.86893 21.3219C5.0329 21.158 5.22874 21.0293 5.44436 20.9439C5.65997 20.8586 5.89079 20.8183 6.12258 20.8256C6.58671 20.8256 7.03183 21.01 7.36001 21.3381C7.6882 21.6663 7.87258 22.1115 7.87258 22.5756C7.87258 23.0397 7.6882 23.4848 7.36001 23.813C7.03183 24.1412 6.58671 24.3256 6.12258 24.3256ZM6.12258 22.1293C6.06448 22.1253 6.0062 22.1339 5.95176 22.1546C5.89731 22.1753 5.84801 22.2076 5.80725 22.2491C5.76648 22.2907 5.73523 22.3407 5.71565 22.3955C5.69607 22.4504 5.68862 22.5088 5.69383 22.5668C5.68864 22.626 5.69632 22.6856 5.71635 22.7415C5.73637 22.7974 5.76827 22.8483 5.80984 22.8907C5.85141 22.9331 5.90168 22.966 5.95717 22.9871C6.01267 23.0082 6.07208 23.0171 6.13133 23.0131C6.2324 22.9928 6.32331 22.9381 6.38863 22.8583C6.45395 22.7786 6.48964 22.6787 6.48964 22.5756C6.48964 22.4725 6.45395 22.3726 6.38863 22.2928C6.32331 22.2131 6.2324 22.1584 6.13133 22.1381L6.12258 22.1293ZM6.12258 19.7668C5.65845 19.7668 5.21333 19.5825 4.88514 19.2543C4.55695 18.9261 4.37258 18.481 4.37258 18.0168C4.37258 17.5527 4.55695 17.1076 4.88514 16.7794C5.21333 16.4512 5.65845 16.2668 6.12258 16.2668C6.58671 16.2668 7.03183 16.4512 7.36001 16.7794C7.6882 17.1076 7.87258 17.5527 7.87258 18.0168C7.87258 18.481 7.6882 18.9261 7.36001 19.2543C7.03183 19.5825 6.58671 19.7668 6.12258 19.7668ZM6.12258 17.5006C6.06448 17.4965 6.0062 17.5052 5.95176 17.5259C5.89731 17.5465 5.84801 17.5788 5.80725 17.6204C5.76648 17.662 5.73523 17.7119 5.71565 17.7668C5.69607 17.8216 5.68862 17.8801 5.69383 17.9381C5.69008 17.9958 5.69853 18.0536 5.71864 18.1078C5.73874 18.162 5.77004 18.2113 5.81049 18.2526C5.85095 18.2939 5.89965 18.3262 5.95343 18.3473C6.0072 18.3685 6.06484 18.3782 6.12258 18.3756C6.22365 18.3553 6.31456 18.3006 6.37988 18.2208C6.4452 18.1411 6.48089 18.0412 6.48089 17.9381C6.48089 17.835 6.4452 17.7351 6.37988 17.6553C6.31456 17.5756 6.22365 17.5209 6.12258 17.5006Z" fill="#EA570F"/>
</svg>
