<svg width="246" height="80" viewBox="0 0 246 80" fill="none" xmlns="http://www.w3.org/2000/svg">
<path d="M58.1538 3.76544C52.6288 1.22508 46.5995 -0.0284784 40.5198 0.099192C34.4401 0.226863 28.4687 1.73243 23.0553 4.50249C17.4125 7.42123 12.5385 11.631 8.83008 16.7892C8.93326 17.5263 9.03645 18.2633 9.18386 19.0446C9.3755 19.9659 9.58187 20.8799 9.83247 21.8011C12.2155 30.8192 17.6946 38.7119 25.3106 44.0971C27.6166 34.7409 32.9924 26.4277 40.5788 20.486C48.1653 14.5443 57.5244 11.3171 67.1606 11.3203C67.8314 11.3203 68.4947 11.3203 69.1655 11.3645C65.95 8.22827 62.2268 5.65897 58.1538 3.76544Z" fill="#FECC00"/>
<path d="M46.8323 69.487L46.707 69.6565L46.2647 70.3493V70.3935C46.1395 70.5631 46.0363 70.7252 45.9109 70.8948L45.7857 71.0864L45.5793 71.3812L45.513 71.4623L45.4319 71.6097L45.3066 71.7792L45.1813 71.9488L45.056 72.1183L45.0118 72.1846L44.8865 72.3321L44.6801 72.6047L44.4516 72.8774V72.9216L44.2232 73.1944L44.179 73.2386L43.9725 73.5334H43.9283L43.6998 73.7841L43.6556 73.8504L43.4272 74.123V74.1673V74.2115L43.1986 74.4621L42.9259 74.7569L42.6311 75.0738L42.3363 75.3908L42.0636 75.6856H42.0194L41.7466 75.9805L41.4297 76.2973C40.6926 77.0344 40.0293 77.6535 39.3438 78.2432L39.2996 78.2874H39.2554H39.2112H39.1669L39.1006 78.3316L39.0342 78.3979H38.99L38.9237 78.4422L38.8795 78.4864H38.8353L38.7542 78.5675H38.71L38.6436 78.6339C33.1878 78.2283 27.8728 76.7102 23.0258 74.1732C18.1787 71.6363 13.9022 68.1341 10.4596 63.8822C7.01697 59.6304 4.48104 54.7188 3.00795 49.4501C1.53485 44.1813 1.15577 38.6668 1.89403 33.246C2.68084 28.8155 4.19768 24.5465 6.38271 20.6128C6.508 21.2614 6.67753 21.9322 6.83967 22.5734C9.47379 32.4003 15.5001 40.9781 23.8517 46.7881C32.2032 52.5982 42.3413 55.2657 52.4707 54.3184C51.8688 58.1759 50.7145 61.9267 49.0435 65.4553C48.3763 66.8364 47.6382 68.1821 46.8323 69.487Z" fill="#EF7F1A"/>
<path d="M45.9111 20.5102C51.2673 17.1316 57.3567 15.0892 63.6668 14.5547C64.0427 14.5105 64.4039 14.4884 64.7945 14.4736H65.1704H65.5463C65.7748 14.4736 66.0253 14.4736 66.2833 14.4736H67.1014C68.0818 14.4736 69.0252 14.4736 69.9465 14.5547H69.9907H70.2413H70.2855H70.5878H70.7941H70.8383H71.03H71.2217H71.4132H71.5828H71.7523H71.8996H72.0471H72.1282C76.9075 20.3711 79.9475 27.4189 80.8982 34.8868C81.8489 42.3547 80.6717 49.9393 77.502 56.7677C74.3323 63.5961 69.299 69.3907 62.9813 73.4847C56.6636 77.5788 49.3185 79.8057 41.791 79.9094C42.2824 79.4475 42.7738 78.9881 43.2651 78.5311C50.8926 70.9095 55.3842 60.7042 55.8523 49.9315C56.3203 39.1589 52.7309 28.6025 45.7932 20.3479L45.9111 20.5102Z" fill="#E31E24"/>
<path d="M96.8936 18.3964V42.3802H132.662V18.3964H123.988V35.7615H119.123V18.3964H110.433V35.7615H105.569V18.3964H96.8936ZM159.381 28.4425C159.399 27.0281 159.202 25.6191 158.799 24.2635C158.427 23.0141 157.776 21.8651 156.897 20.9024C155.942 19.9084 154.769 19.1513 153.47 18.6913C151.795 18.1241 150.034 17.8547 148.267 17.8953C146.783 17.8822 145.303 18.0081 143.844 18.2712C142.716 18.4705 141.605 18.7563 140.52 19.1261C139.77 19.3623 139.036 19.648 138.323 19.9812L139.871 25.6049C140.471 25.243 141.109 24.9489 141.773 24.7278C142.53 24.4332 143.312 24.2086 144.11 24.0571C144.949 23.8825 145.802 23.7912 146.659 23.7843C147.479 23.7758 148.295 23.8825 149.084 24.1013C149.538 24.2282 149.946 24.4843 150.256 24.8383C150.459 25.1157 150.563 25.4531 150.551 25.7965V26.0029C148.669 25.9882 146.791 26.1784 144.95 26.5704C143.389 26.877 141.893 27.4504 140.528 28.2657C139.339 28.9895 138.354 30.0009 137.66 31.2065C136.968 32.4812 136.614 33.9129 136.636 35.3635C136.633 36.3451 136.826 37.3173 137.203 38.2233C137.554 39.1242 138.091 39.9406 138.78 40.6186C139.481 41.3457 140.328 41.9159 141.265 42.2918C142.307 42.7116 143.42 42.9244 144.545 42.9183C145.798 42.9258 147.043 42.7215 148.23 42.3139C149.383 41.8957 150.416 41.1995 151.237 40.2871H151.385L151.863 42.3729H159.772C159.691 41.9527 159.602 41.4516 159.543 40.8472C159.485 40.2427 159.462 39.5721 159.418 38.8424C159.374 38.1127 159.418 37.3683 159.418 36.5206L159.381 28.4425ZM150.838 33.3513V34.022C150.823 34.2249 150.796 34.4266 150.757 34.6264C150.628 35.0619 150.389 35.4575 150.064 35.7762C149.756 36.0913 149.388 36.3418 148.981 36.5133C148.587 36.6875 148.16 36.7802 147.729 36.786C147.08 36.8141 146.444 36.6132 145.93 36.2184C145.695 35.9977 145.512 35.7282 145.392 35.4291C145.272 35.1299 145.219 34.8081 145.237 34.4864C145.23 33.9959 145.365 33.5139 145.627 33.099C145.889 32.6841 146.266 32.3543 146.711 32.1499C148.014 31.5897 149.43 31.3375 150.846 31.4129L150.838 33.3513ZM164.253 42.3802H172.007L172.301 33.7124C172.346 33.1081 172.368 32.3784 172.382 31.5013C172.397 30.6242 172.382 29.6439 172.427 28.5973C172.471 27.5507 172.471 26.4894 172.508 25.4427H172.699C172.867 26.2142 173.056 27.0716 173.268 28.0151C173.459 28.9584 173.666 29.8945 173.85 30.838C174.034 31.7814 174.248 32.6585 174.454 33.4472L176.666 41.9306H183.055L185.687 33.1523C185.915 32.4153 186.107 31.6782 186.254 31.1918C186.401 30.7053 186.527 30.1673 186.63 29.7176L186.947 28.4646C187.028 28.0666 187.153 27.6097 187.278 27.1084C187.405 26.6073 187.574 25.9807 187.78 25.2732H187.928C187.928 26.0102 187.972 26.7473 187.972 27.4843C187.972 28.2214 188.038 29.0101 188.053 29.7619C188.068 30.5137 188.097 31.236 188.119 31.8698C188.141 32.5037 188.163 33.0786 188.186 33.5651L188.414 42.4097H196.625L195.269 18.4259H184.095L181.965 26.1798C181.67 27.2657 181.397 28.3099 181.147 29.3122C180.918 30.3146 180.69 31.2139 180.498 32.032H180.351C180.159 31.295 179.996 30.5063 179.827 29.8209C179.657 29.1354 179.51 28.4204 179.37 27.816C179.23 27.2117 179.097 26.6883 178.972 26.2682L177.137 18.4555H165.86L164.253 42.3802ZM218.883 35.4593C218.316 35.6703 217.728 35.8234 217.13 35.9163C216.437 36.0026 215.741 36.0445 215.043 36.0416C214.293 36.0408 213.547 35.9215 212.833 35.6878C212.154 35.4605 211.53 35.0969 210.997 34.6191C210.437 34.1278 210 33.5117 209.722 32.8206C209.395 32.0206 209.227 31.1643 209.229 30.2999C209.227 29.2314 209.479 28.1779 209.966 27.2264C210.426 26.3913 211.113 25.7038 211.948 25.2437C212.854 24.7563 213.868 24.503 214.896 24.5066C215.638 24.4974 216.378 24.5615 217.108 24.6983C217.632 24.7921 218.143 24.9454 218.633 25.1553L219.908 18.6544C219.311 18.4677 218.702 18.3152 218.088 18.1975C217.462 18.0555 216.827 17.9643 216.186 17.9247C215.537 17.8584 214.933 17.8437 214.351 17.8437C212.259 17.8089 210.178 18.156 208.211 18.8682C206.552 19.46 205.042 20.4085 203.789 21.6469C202.635 22.7967 201.738 24.1784 201.157 25.7006C200.567 27.2539 200.269 28.9034 200.28 30.5653C200.234 32.8591 200.779 35.1261 201.865 37.1472C202.909 38.9734 204.471 40.4485 206.354 41.3853C208.505 42.4077 210.865 42.9125 213.246 42.8594C214.093 42.8923 214.941 42.8824 215.788 42.8299C216.553 42.7538 217.313 42.6357 218.066 42.4761C218.673 42.3499 219.268 42.1673 219.841 41.9306L218.883 35.4593ZM244.813 28.4425C244.836 27.0289 244.645 25.6198 244.246 24.2635C243.867 23.012 243.209 21.863 242.322 20.9024C241.365 19.912 240.192 19.1554 238.895 18.6913C237.213 18.1224 235.445 17.8531 233.669 17.8953C232.187 17.8809 230.706 18.0067 229.247 18.2712C228.111 18.4681 226.992 18.7539 225.9 19.1261C225.167 19.368 224.448 19.6535 223.749 19.9812L225.318 25.6049C225.908 25.2391 226.538 24.9445 227.197 24.7278C227.961 24.4331 228.751 24.2085 229.556 24.0571C230.388 23.8837 231.235 23.7924 232.085 23.7843C232.903 23.7727 233.72 23.8795 234.509 24.1013C234.966 24.223 235.374 24.4799 235.681 24.8383C235.891 25.1136 236.002 25.4507 235.998 25.7965V26.0029C234.116 25.9872 232.237 26.1774 230.396 26.5704C228.837 26.8831 227.342 27.4561 225.974 28.2657C224.799 28.9884 223.83 30.0011 223.158 31.2065C222.466 32.4812 222.113 33.9129 222.134 35.3635C222.131 36.3451 222.323 37.3173 222.701 38.2233C223.039 39.1203 223.561 39.9364 224.235 40.6186C224.932 41.3501 225.779 41.9211 226.718 42.2918C227.76 42.7135 228.875 42.9263 229.998 42.9183C231.252 42.9242 232.498 42.7199 233.683 42.3139C234.832 41.8855 235.862 41.1909 236.691 40.2871H236.838L237.317 42.3729H245.211C245.1 41.8701 245.025 41.3603 244.982 40.8472C244.919 40.2427 244.877 39.5745 244.857 38.8424C244.857 38.1054 244.813 37.3683 244.813 36.5206V28.4425ZM236.286 33.3513V34.022C236.273 34.2266 236.238 34.4293 236.182 34.6264C236.06 35.0604 235.83 35.4562 235.512 35.7762C235.213 36.0998 234.853 36.3594 234.451 36.5393C234.049 36.7192 233.615 36.8157 233.175 36.8229C232.528 36.8542 231.89 36.653 231.377 36.2553C231.138 36.0374 230.952 35.7684 230.832 35.4685C230.712 35.1686 230.661 34.8455 230.683 34.5233C230.676 34.0327 230.812 33.5507 231.074 33.1358C231.335 32.721 231.712 32.3913 232.158 32.1867C233.46 31.6221 234.876 31.3697 236.293 31.4497L236.286 33.3513Z" fill="#E31E24"/>
<path d="M98.3745 58.8007V66.8641H96.9004V57.5698H102.863V58.8155L98.3745 58.8007Z" fill="#444444"/>
<path d="M111.922 58.7725C112.641 59.7746 113.028 60.9772 113.028 62.2108C113.028 63.4445 112.641 64.647 111.922 65.6492C111.577 66.071 111.139 66.4081 110.643 66.6342C110.148 66.8604 109.606 66.9698 109.062 66.9538C108.471 66.9888 107.88 66.8575 107.359 66.5749C106.838 66.2923 106.408 65.8694 106.114 65.3544V69.9757H104.64V57.571H105.966V59.0451C106.252 58.546 106.677 58.1411 107.19 57.8806C107.742 57.5902 108.357 57.4408 108.981 57.4458C109.541 57.4214 110.098 57.5289 110.61 57.7593C111.12 57.9896 111.57 58.3367 111.922 58.7725ZM110.735 64.6689C111.228 63.9384 111.491 63.0772 111.491 62.1961C111.491 61.3149 111.228 60.4539 110.735 59.7232C110.498 59.4307 110.199 59.1948 109.859 59.0328C109.519 58.8708 109.148 58.7867 108.771 58.7867C108.394 58.7867 108.022 58.8708 107.683 59.0328C107.343 59.1948 107.043 59.4307 106.806 59.7232C106.319 60.4515 106.058 61.3084 106.058 62.185C106.058 63.0616 106.319 63.9185 106.806 64.6468C107.034 64.9484 107.329 65.1914 107.669 65.3555C108.009 65.5196 108.382 65.6001 108.76 65.5902C109.136 65.6052 109.512 65.5318 109.855 65.3755C110.197 65.2193 110.499 64.9849 110.735 64.691V64.6689Z" fill="#444444"/>
<path d="M114.913 70.1809V68.9131C115.115 68.95 115.321 68.9673 115.526 68.9647C115.904 68.987 116.275 68.863 116.565 68.6182C116.882 68.2809 117.112 67.871 117.235 67.4242L117.42 66.8715L113.978 57.5698H115.548L118.156 65.3531L120.825 57.5698H122.402L118.753 67.4537C118.508 68.2789 118.073 69.0357 117.486 69.6649C116.942 70.0919 116.26 70.3045 115.57 70.2619C115.349 70.2555 115.129 70.2284 114.913 70.1809Z" fill="#444444"/>
<path d="M129.943 58.8007H125.299V66.8641H123.825V57.5698H131.446V66.8641H129.973L129.943 58.8007Z" fill="#444444"/>
<path d="M139.775 58.8007H135.131V66.8641H133.657V57.5698H141.279V66.8641H139.804L139.775 58.8007Z" fill="#444444"/>
<path d="M143.91 66.1998C143.626 65.9539 143.401 65.6474 143.252 65.3029C143.103 64.9585 143.033 64.5848 143.048 64.2098C143.032 63.8467 143.105 63.4853 143.262 63.1575C143.419 62.8297 143.654 62.5456 143.946 62.3303C144.703 61.8211 145.593 61.5443 146.504 61.5342L149.114 61.3795V60.6056C149.127 60.3571 149.085 60.1084 148.99 59.8786C148.894 59.6487 148.748 59.4437 148.56 59.2788C148.106 58.9423 147.548 58.7777 146.983 58.8145C146.499 58.7988 146.022 58.9355 145.62 59.2052C145.44 59.325 145.285 59.4792 145.165 59.6587C145.045 59.8383 144.962 60.0399 144.919 60.2518H143.445C143.458 59.8645 143.559 59.4853 143.74 59.1429C143.921 58.8006 144.179 58.5042 144.492 58.2765C145.201 57.7344 146.076 57.4533 146.969 57.4804C147.914 57.4317 148.846 57.7188 149.6 58.2913C149.924 58.5581 150.182 58.8967 150.354 59.2804C150.525 59.6642 150.605 60.0825 150.587 60.5024V66.8926H149.165V65.2491C148.901 65.7702 148.487 66.2013 147.978 66.4873C147.434 66.7988 146.815 66.9592 146.187 66.9516C145.361 66.9903 144.551 66.7226 143.91 66.1998ZM148.398 64.991C148.636 64.7845 148.825 64.5282 148.953 64.2403C149.08 63.9524 149.142 63.64 149.136 63.3253V62.5882L146.703 62.743C145.289 62.8315 144.58 63.3228 144.58 64.2172C144.575 64.4202 144.619 64.6215 144.711 64.8029C144.802 64.9844 144.937 65.1402 145.104 65.2564C145.512 65.5465 146.004 65.6942 146.504 65.6765C147.202 65.6956 147.881 65.4508 148.405 64.991H148.398Z" fill="#444444"/>
<path d="M164.562 66.8641H162.617L158.547 62.3607H158.481V66.8641H157.007V57.5698H158.481V61.7047H158.547L162.58 57.5698H164.444L160.066 61.9921L164.562 66.8641Z" fill="#444444"/>
<path d="M166.404 65.679C165.65 64.6861 165.241 63.4732 165.241 62.2259C165.241 60.9785 165.65 59.7656 166.404 58.7728C167.234 57.9446 168.358 57.4795 169.53 57.4795C170.702 57.4795 171.825 57.9446 172.655 58.7728C173.412 59.7663 173.821 60.9807 173.821 62.2296C173.821 63.4784 173.412 64.6929 172.655 65.6863C171.824 66.5136 170.7 66.9774 169.529 66.976C168.356 66.9747 167.233 66.5081 166.404 65.679ZM171.564 64.7282C172.043 63.9803 172.298 63.1105 172.298 62.2222C172.298 61.3338 172.043 60.4641 171.564 59.7162C171.308 59.433 170.994 59.2065 170.644 59.0517C170.294 58.8968 169.916 58.8168 169.534 58.8168C169.151 58.8168 168.773 58.8968 168.423 59.0517C168.074 59.2065 167.76 59.433 167.503 59.7162C167.023 60.4641 166.769 61.3338 166.769 62.2222C166.769 63.1105 167.023 63.9803 167.503 64.7282C167.76 65.0115 168.074 65.2378 168.423 65.3928C168.773 65.5476 169.151 65.6276 169.534 65.6276C169.916 65.6276 170.294 65.5476 170.644 65.3928C170.994 65.2378 171.308 65.0115 171.564 64.7282Z" fill="#444444"/>
<path d="M175.596 66.8641V57.5698H177.402L180.77 64.8888H180.837L184.213 57.5698H185.951V66.8641H184.478V60.2306H184.411L181.375 66.5988H180.187L177.151 60.2306H177.085V66.8641H175.596Z" fill="#444444"/>
<path d="M194.295 58.8007H189.651V66.8641H188.177V57.5698H195.798V66.8641H194.324L194.295 58.8007Z" fill="#444444"/>
<path d="M198.431 66.1998C198.146 65.9539 197.922 65.6474 197.773 65.3029C197.623 64.9585 197.554 64.5848 197.568 64.2098C197.552 63.8467 197.625 63.4853 197.782 63.1575C197.939 62.8297 198.174 62.5456 198.468 62.3303C199.23 61.8169 200.128 61.54 201.046 61.5342L203.656 61.3795V60.6056C203.671 60.3571 203.628 60.1084 203.533 59.8786C203.437 59.6487 203.29 59.4437 203.103 59.2788C202.649 58.9423 202.09 58.7777 201.525 58.8145C201.041 58.7988 200.564 58.9355 200.162 59.2052C199.982 59.325 199.829 59.4792 199.708 59.6587C199.588 59.8383 199.504 60.0399 199.462 60.2518H197.988C198 59.8645 198.101 59.4853 198.282 59.1429C198.464 58.8006 198.721 58.5042 199.035 58.2765C199.744 57.7344 200.619 57.4533 201.511 57.4804C202.456 57.4317 203.389 57.7188 204.142 58.2913C204.468 58.5581 204.725 58.8967 204.897 59.2804C205.069 59.6642 205.148 60.0825 205.13 60.5024V66.8926H203.708V65.2491C203.443 65.7702 203.031 66.2013 202.521 66.4873C201.976 66.7988 201.358 66.9592 200.73 66.9516C199.897 66.9959 199.077 66.7278 198.431 66.1998ZM202.919 64.991C203.157 64.7845 203.345 64.5282 203.473 64.2403C203.6 63.9524 203.663 63.64 203.656 63.3253V62.5882L201.223 62.743C199.809 62.8315 199.101 63.3228 199.101 64.2172C199.095 64.4202 199.14 64.6215 199.231 64.8029C199.322 64.9844 199.458 65.1402 199.624 65.2564C200.038 65.5513 200.539 65.6992 201.046 65.6765C201.737 65.69 202.408 65.4456 202.926 64.991H202.919Z" fill="#444444"/>
<path d="M213.503 62.6481H208.771V66.8641H207.297V57.5698H208.771V61.4247H213.503V57.5698H214.977V66.8641H213.503V62.6481Z" fill="#444444"/>
<path d="M217.203 66.8641V57.5698H218.677V64.5571H218.736L223.526 57.5698H225.001V66.8641H223.526V59.8768H223.46L218.669 66.8641H217.203Z" fill="#444444"/>
<path d="M227.25 66.8635V57.5691H228.723V64.5564H228.79L233.58 57.5691H235.055V66.8635H233.58V59.8761H233.514L228.723 66.8635H227.25ZM229.519 53.4785C229.502 53.9428 229.663 54.3962 229.968 54.7462C230.128 54.9105 230.319 55.0411 230.53 55.1303C230.74 55.2195 230.967 55.2655 231.196 55.2655C231.425 55.2655 231.652 55.2195 231.862 55.1303C232.073 55.0411 232.264 54.9105 232.423 54.7462C232.728 54.3962 232.89 53.9428 232.873 53.4785H233.978C233.997 53.835 233.941 54.1916 233.814 54.5253C233.687 54.859 233.492 55.1627 233.241 55.4169C232.68 55.8965 231.967 56.1601 231.23 56.1601C230.492 56.1601 229.778 55.8965 229.217 55.4169C228.967 55.1636 228.773 54.8611 228.646 54.5287C228.519 54.1963 228.462 53.8413 228.48 53.4859L229.519 53.4785Z" fill="#444444"/>
</svg>
