<svg width="90" height="80" viewBox="0 0 90 80" fill="none" xmlns="http://www.w3.org/2000/svg">
<g clip-path="url(#clip0_117_762)">
<path fill-rule="evenodd" clip-rule="evenodd" d="M10.3395 0.822266C5.00185 0.822266 0.720215 4.9569 0.720215 10.1082V69.891C0.720215 75.0425 5.00185 79.1772 10.3395 79.1772H48.9448C71.3383 79.1772 89.5165 61.6216 89.5165 39.9996C89.5165 18.3775 71.3383 0.822266 48.9448 0.822266C33.5725 0.822266 25.7119 0.822266 10.3395 0.822266Z" fill="#FFC709"/>
<path fill-rule="evenodd" clip-rule="evenodd" d="M59.6867 42.8474C57.579 42.8474 55.8955 44.5419 55.8955 46.5753C55.8955 48.6087 57.579 50.2353 59.6867 50.2353C61.79 50.2353 63.4779 48.6087 63.4779 46.5753C63.4779 44.5419 61.79 42.8474 59.6867 42.8474ZM59.6867 29.7656C57.579 29.7656 55.8955 31.4602 55.8955 33.4258C55.8955 35.4593 57.579 37.086 59.6867 37.086C61.79 37.086 63.4779 35.3915 63.4779 33.4258C63.4779 31.4602 61.79 29.7656 59.6867 29.7656Z" fill="black"/>
</g>
<defs>
<clipPath id="clip0_117_762">
<rect width="90" height="80" fill="white"/>
</clipPath>
</defs>
</svg>
