<svg width="420" height="80" viewBox="0 0 420 80" fill="none" xmlns="http://www.w3.org/2000/svg">
<g clip-path="url(#clip0_117_767)">
<mask id="mask0_117_767" style="mask-type:luminance" maskUnits="userSpaceOnUse" x="-68" y="0" width="488" height="80">
<path d="M419.555 0H-67.5791V80H419.555V0Z" fill="white"/>
</mask>
<g mask="url(#mask0_117_767)">
<path d="M318.21 0H-67.7896V80H318.21V0Z" fill="#E20613"/>
<path d="M337.573 41.0094C337.573 55.772 345.011 68.98 358.079 75.448C370.374 81.5186 386.753 81.5186 399.087 75.448C411.251 69.4506 419.555 55.772 419.555 41.0094C419.555 18.4414 401.516 0 378.565 0C355.516 0 337.573 18.3014 337.573 41.0094Z" fill="#009540"/>
<path d="M378.583 10.6314C374.46 24.6301 362.163 45.1367 353.182 55.1901H374.46L374.516 61.2807C374.46 64.7367 371.71 68.3341 367.718 68.2861C362.162 68.2101 355.215 65.6395 351.018 58.5127C347.966 53.3167 345.745 49.2221 345.745 41.0127C345.745 23.0781 360.187 8.21143 378.563 8.21143C396.732 8.21143 411.382 23.5101 411.382 41.0127C411.382 49.2221 407.561 56.3287 406.281 58.3727C401.8 65.6394 394.965 68.2114 389.675 68.2781C386.041 68.3247 382.669 65.6394 382.669 61.2621V55.1901H404.265C394.963 45.1367 382.669 24.6301 378.583 10.6314Z" fill="white"/>
<path d="M202.625 15.6001C206.07 15.6001 208.236 16.8815 211.476 21.0307L235.577 55.5187C236.859 57.3321 236.725 60.2055 234.523 62.0787C232.564 63.7361 229.099 63.8801 227.217 61.4015L221.453 53.4067H183.477L177.733 61.5441C175.7 63.9535 173.196 63.9535 170.956 62.4561C168.601 60.8935 168.016 57.8535 169.448 55.7547L193.774 21.0321C196.864 16.7307 199.29 15.6001 202.625 15.6001ZM204.056 28.3747C203.414 27.4441 203.19 27.3495 202.51 27.3495C201.759 27.3495 201.457 27.7241 200.95 28.4121C200.101 29.5321 190.443 43.7667 190.33 43.7667H214.751C214.694 43.7667 205.411 30.3721 204.056 28.3747Z" fill="white"/>
<path d="M39.0009 15.7524H73.6451C82.2314 15.7524 83.023 25.6592 83.023 25.6592H40.3945C38.2851 25.6592 36.3261 27.2498 36.3261 30.0244C36.3261 33.1884 38.7367 34.6952 40.2451 34.6952H70.3693C76.3367 34.6952 84.8303 39.6658 84.8303 48.2418C84.8303 59.3978 74.9619 63.3618 71.5377 63.3618H36.2875C25.8009 63.3618 26.3861 53.3738 26.3861 53.3738H70.0693C71.8198 53.3738 74.3998 51.6404 74.3998 49.0444C74.3998 46.5752 72.1409 44.6738 70.4819 44.6738H40.9577C32.5781 44.6738 26.0835 38.4632 26.0835 30.0258C26.0835 20.5258 34.2369 15.7524 39.0009 15.7524Z" fill="white"/>
<path d="M260.77 15.6001H296.62C302.041 15.6001 310.477 20.0455 310.477 30.6641V31.3401C310.477 37.0001 306.937 41.9535 301.966 44.3615C301.966 44.3615 302.325 44.9187 310.026 55.3681C311.025 56.7161 311.08 59.9615 308.893 61.9215C306.806 63.7841 303.34 64.0201 301.588 61.9975C299.142 59.1615 296.316 55.4441 288.561 45.5681H274.552C270.561 45.5681 265.135 42.4135 265.135 35.4095H295.413C297.052 35.3441 299.687 33.7627 299.687 30.6655C299.687 27.8027 297.166 25.8441 295.393 25.8441H261.953L261.991 57.5507C261.991 61.0187 259.337 63.3535 256.475 63.3535C253.765 63.3535 251.052 60.9415 251.052 57.7041V25.3907C251.052 19.9695 256.778 15.6001 260.77 15.6001Z" fill="white"/>
<path d="M113.789 15.6743H149.638C155.08 15.6743 163.496 20.1211 163.496 30.7491V31.4171C163.496 37.0743 159.958 42.0463 154.986 44.4543C154.986 44.4543 152.425 45.2837 150.014 45.5863H127.494C123.503 45.5863 118.363 42.3477 118.363 35.3331H148.358C149.996 35.2663 152.726 33.8357 152.726 30.7491C152.726 27.8863 150.183 25.9277 148.415 25.9277H114.994L115.011 57.6371C115.011 61.0931 112.358 63.4263 109.494 63.4263C106.783 63.4263 104.072 61.0171 104.072 57.7783V25.4757C104.072 20.0451 109.798 15.6743 113.789 15.6743Z" fill="white"/>
</g>
</g>
<defs>
<clipPath id="clip0_117_767">
<rect width="420" height="80" fill="white"/>
</clipPath>
</defs>
</svg>
