<svg width="40" height="40" viewBox="0 0 40 40" fill="none" xmlns="http://www.w3.org/2000/svg">
<path d="M33.0938 13.125L25.5312 5.5625C25.4375 5.46875 25.2812 5.40625 25.1562 5.40625H14.25C12.75 5.40625 11.5313 6.625 11.5313 8.125V18.6562H8.3125C7.4375 18.6562 6.75 19.3437 6.75 20.2187V29.375C6.75 30.25 7.4375 30.9375 8.3125 30.9375H11.5313V31.9375C11.5313 33.4375 12.75 34.6563 14.25 34.6563H30.5625C32.0625 34.6563 33.2812 33.4375 33.2812 31.9375V13.5C33.25 13.375 33.1875 13.2188 33.0938 13.125ZM31.375 12.9688H27.2813C26.4063 12.9688 25.6562 12.25 25.6562 11.3438V7.25L31.375 12.9688ZM7.84375 29.3438V20.1875C7.84375 19.9375 8.0625 19.7188 8.3125 19.7188H24.125C24.375 19.7188 24.5938 19.9375 24.5938 20.1875V29.3438C24.5938 29.5938 24.375 29.8125 24.125 29.8125H8.3125C8.0625 29.8125 7.84375 29.5938 7.84375 29.3438ZM30.5625 33.5H14.25C13.375 33.5 12.625 32.7812 12.625 31.875V30.875H24.0938C24.9688 30.875 25.6562 30.1875 25.6562 29.3125V20.1875C25.6562 19.3125 24.9688 18.625 24.0938 18.625H12.625V8.09375C12.625 7.21875 13.3437 6.46875 14.25 6.46875H24.5938V11.3438C24.5938 12.8438 25.8125 14.0625 27.3125 14.0625H32.1875V31.9062C32.1562 32.7812 31.4375 33.5 30.5625 33.5Z" fill="#232729"/>
<path d="M13.2187 24.0313C13.2187 23.125 12.5 22.5 11.5313 22.5H9.5V27H10.4688V25.5312H11.5313C12.5 25.5625 13.2187 24.9375 13.2187 24.0313ZM11.4062 24.6563H10.4375V23.375H11.4062C11.875 23.375 12.2187 23.625 12.2187 24C12.2187 24.375 11.875 24.6563 11.4062 24.6563Z" fill="#232729"/>
<path d="M18.375 24.75C18.375 23.4375 17.3125 22.5 15.7813 22.5H14.1562V27H15.7813C17.3125 27.0313 18.375 26.0937 18.375 24.75ZM15.1563 23.375H15.9375C16.6875 23.3125 17.3438 23.9063 17.4063 24.6563C17.4688 25.5 16.7813 26.1875 15.9375 26.125H15.1563V23.375Z" fill="#232729"/>
<path d="M20.4375 25.25H22.6875V24.375H20.4375V23.375H22.9375V22.5H19.4688V27.0312H20.4375V25.25Z" fill="#232729"/>
</svg>
