<svg width="16" height="17" viewBox="0 0 16 17" fill="none" xmlns="http://www.w3.org/2000/svg">
<g clip-path="url(#clip0_183_1133)">
<path fill-rule="evenodd" clip-rule="evenodd" d="M11.035 15.2554C10.075 15.22 7.35433 14.844 4.50499 11.9954C1.65633 9.14602 1.28099 6.42602 1.24499 5.46535C1.19166 4.00135 2.31299 2.57936 3.60833 2.02402C3.76431 1.95667 3.93513 1.93102 4.10401 1.94961C4.2729 1.96819 4.43405 2.03036 4.57166 2.13002C5.63833 2.90735 6.37433 4.08336 7.00633 5.00802C7.14538 5.21117 7.20484 5.45839 7.17336 5.70255C7.14189 5.94672 7.02169 6.17077 6.83566 6.33202L5.53499 7.29802C5.47215 7.3434 5.42792 7.41004 5.41051 7.48557C5.3931 7.5611 5.40369 7.64038 5.44033 7.70869C5.73499 8.24402 6.25899 9.04136 6.85899 9.64136C7.45966 10.2414 8.29433 10.8 8.86699 11.128C8.93879 11.1683 9.02331 11.1796 9.10316 11.1595C9.18302 11.1394 9.25214 11.0895 9.29633 11.02L10.143 9.73136C10.2987 9.52459 10.5283 9.38607 10.7838 9.34481C11.0393 9.30355 11.3008 9.36276 11.5137 9.51002C12.4517 10.1594 13.5463 10.8827 14.3477 11.9087C14.4554 12.0473 14.524 12.2123 14.5461 12.3864C14.5683 12.5606 14.5433 12.7375 14.4737 12.8987C13.9157 14.2007 12.5037 15.3094 11.035 15.2554Z" fill="white"/>
</g>
<defs>
<clipPath id="clip0_183_1133">
<rect width="16" height="16" fill="white" transform="translate(0 0.5)"/>
</clipPath>
</defs>
</svg>
