<svg width="208" height="46" viewBox="0 0 208 46" fill="none" xmlns="http://www.w3.org/2000/svg">
<g clip-path="url(#clip0_69_3381)">
<path d="M115.983 31.9821L117.671 35.3048L122.943 45.6848H115.482H114.308L108.324 33.9334C107.691 33.9622 107.036 33.9743 106.353 33.9743H84.2529V45.7334H76.0625V33.9743H61.666L53.8208 45.6847L44.6746 45.6651L52.5254 33.9743H45.7051L50.3684 27.0246H57.1925L75.1067 0.348494H84.2529V27.0246H90.8229V7.40432V7.39846V0.348613V0.291279H105.951C107.592 0.291279 108.899 0.229972 110.541 0.495358C118.453 1.77514 124.5 8.75239 124.5 17.1681C124.5 21.9669 122.534 26.2981 119.377 29.3717C118.238 30.4805 117.123 31.3317 115.983 31.9821ZM66.3218 27.0246H76.0625V12.4847L66.3218 27.0246ZM99.0138 27.0246H104.445C107.823 27.0246 110.337 26.9909 113.099 24.7447C115.283 22.9692 116.682 20.2349 116.682 17.1681C116.682 13.7641 114.958 10.7701 112.351 9.04124C110.273 7.66297 108.391 7.39846 105.956 7.39846H99.0062L99.0138 7.40432V27.0246ZM99.0138 33.9746V45.7334H90.8229V33.9746H99.0138Z" fill="#043F5C"/>
<path d="M37.1291 33.9458V44.3141L35.7352 45.7335H1.39403L0 44.3141V33.9458H37.1291ZM5.20528 42.41V40.1551H6.379L8.12301 42.41H9.55049L7.70413 40.0278C8.482 39.8047 8.94349 39.223 8.94349 38.4819C8.94349 37.9962 8.75351 37.5997 8.38799 37.2948C8.01867 36.9868 7.51544 36.8327 6.88364 36.8327H3.97449V42.41H5.20528ZM5.20528 37.8366H6.81495C7.37067 37.8366 7.70413 38.0916 7.70413 38.5139C7.70413 38.9522 7.37034 39.191 6.81495 39.191H5.20528V37.8366ZM14.8321 42.41V41.3824H11.4356V40.0901H13.8437V39.0783H11.4356V37.8605H14.7381V36.8327H10.2049V42.41H14.8321ZM15.4034 37.8605H17.2926V42.41H18.5234V37.8605H20.4212V36.8327H15.4034V37.8605ZM21.2405 42.41L21.8304 41.1191H24.3605L24.9503 42.41H26.2582L23.6937 36.8008H22.5142L19.9496 42.41H21.2405ZM23.0954 38.235L23.9673 40.1711H22.215L23.0954 38.235ZM28.1689 42.41V36.8327H26.9465V42.41H28.1689ZM34.0626 42.41V41.3824H30.7493V36.8327H29.5182V42.41H34.0626Z" fill="#043F5C"/>
<path fill-rule="evenodd" clip-rule="evenodd" d="M20.2815 0.416016H35.7352L37.1291 1.83535V28.1568H5.31016L18.6748 8.27431L25.5355 18.481H16.5802L12.6894 24.2694C19.89 24.2694 27.0908 24.2694 34.2916 24.2694L35.2139 22.6306L20.2815 0.416016ZM1.39392 0.416016H17.0682L2.13582 22.6306L0 25.8081V1.83535L1.39392 0.416016Z" fill="#E95B21"/>
<path d="M163.551 21.0121H163.559V43.7095L163.278 43.8206C162.505 44.1271 161.697 44.3691 160.899 44.589C159.839 44.8795 158.76 45.1012 157.681 45.2947C156.471 45.5113 155.251 45.6729 154.03 45.7978C152.79 45.9251 151.543 46 150.297 46C147.015 46 143.642 45.5905 140.541 44.399C137.93 43.3953 135.53 41.938 133.543 39.8621C131.648 37.8841 130.254 35.5372 129.34 32.8876C128.358 30.0393 127.958 27.0329 127.958 24.0085C127.958 21.7968 128.187 19.5953 128.691 17.4477C129.166 15.4173 129.88 13.468 130.852 11.6467C131.796 9.87825 132.958 8.26493 134.312 6.82733C135.688 5.36661 137.253 4.13111 138.957 3.13708C140.751 2.09069 142.668 1.33162 144.653 0.810254C146.817 0.244071 149.05 0.000488281 151.276 0.000488281C153.263 0.000488281 155.255 0.141805 157.217 0.471156C158.761 0.729459 160.367 1.07784 161.843 1.63319L162.129 1.74108V9.38955L161.572 9.20562C160.017 8.69621 158.429 8.30554 156.823 8.03563C155.223 7.76758 153.606 7.6308 151.986 7.6308C149.909 7.6308 147.856 7.94487 145.886 8.65913C144.07 9.31806 142.429 10.314 141.01 11.6895C139.587 13.0677 138.525 14.7439 137.767 16.6196C136.902 18.7579 136.575 21.1037 136.581 23.42C136.592 27.4585 137.389 31.7374 140.226 34.6507C143.003 37.5032 146.805 38.3681 150.557 38.3681C151.427 38.3681 152.298 38.3212 153.162 38.227C153.836 38.153 154.518 38.0638 155.187 37.9298V28.5971H145.976V21.0055H163.559L163.551 21.0121Z" fill="#043F5C"/>
<path d="M207.649 22.9995C207.649 26.1406 207.259 29.2771 206.301 32.2567C205.434 34.9545 204.128 37.4297 202.32 39.5441C200.526 41.6423 198.359 43.2177 195.898 44.3127C193.171 45.5264 190.227 46 187.282 46C184.337 46 181.392 45.5264 178.664 44.3127C176.204 43.2177 174.037 41.6423 172.243 39.5441C170.436 37.4304 169.14 34.9528 168.274 32.2567C167.315 29.2759 166.915 26.1434 166.915 22.9995C166.915 19.8556 167.316 16.7236 168.274 13.7421C169.14 11.0461 170.437 8.57034 172.243 6.45611C174.037 4.35727 176.204 2.78134 178.664 1.68582C181.392 0.472005 184.338 0 187.282 0C190.227 0 193.171 0.472005 195.898 1.68582C198.359 2.78134 200.526 4.35672 202.32 6.45611C204.128 8.571 205.434 11.0439 206.301 13.7421C207.259 16.722 207.649 19.8584 207.649 22.9995ZM199.256 22.9995C199.256 20.7205 199.025 18.3785 198.343 16.2042C197.797 14.4631 197.002 12.7965 195.843 11.4077C194.804 10.1618 193.555 9.20425 192.091 8.571C190.561 7.90853 188.935 7.63108 187.282 7.63108C185.629 7.63108 184.003 7.90853 182.472 8.571C181.008 9.20425 179.761 10.1612 178.721 11.4077C177.561 12.7965 176.768 14.4631 176.221 16.2042C175.54 18.3785 175.308 20.7205 175.308 22.9995C175.308 25.2757 175.541 27.6233 176.221 29.7947C176.768 31.5348 177.558 33.1933 178.719 34.5787C179.763 35.8217 181.012 36.7799 182.473 37.4178C184.003 38.0852 185.629 38.3674 187.282 38.3674C188.935 38.3674 190.561 38.0852 192.09 37.4178C193.551 36.7799 194.802 35.8212 195.844 34.5787C197.005 33.1933 197.797 31.5348 198.343 29.7947C199.024 27.624 199.256 25.2751 199.256 22.9995Z" fill="#043F5C"/>
</g>
<defs>
<clipPath id="clip0_69_3381">
<rect width="208" height="46" fill="white"/>
</clipPath>
</defs>
</svg>
