<svg width="144" height="40" viewBox="0 0 144 40" fill="none" xmlns="http://www.w3.org/2000/svg">
<path fill-rule="evenodd" clip-rule="evenodd" d="M80.1304 25.4919L81.2365 27.6602L84.6923 34.4339H79.8013H79.0321L75.1104 26.7652C74.6959 26.7841 74.2662 26.792 73.8186 26.792H59.3334V34.4656H53.9652V26.792H44.5292L39.3873 34.4339L33.3926 34.4211L38.5383 26.792H34.068L37.1245 22.2566H41.5972L53.3386 4.84847H59.3334V22.2566H63.6395V9.45296V9.44911V4.84855V4.81112H73.5548C74.6305 4.81112 75.4873 4.77112 76.5634 4.94432C81.7487 5.77945 85.7125 10.3327 85.7125 15.8246C85.7125 18.9561 84.4238 21.7826 82.3547 23.7884C81.6083 24.512 80.8771 25.0674 80.1304 25.4919ZM47.5808 22.2566H53.9652V12.7683L47.5808 22.2566ZM69.0078 22.2566H72.5683C74.7822 22.2566 76.43 22.2347 78.2401 20.7689C79.671 19.6102 80.588 17.8259 80.588 15.8246C80.588 13.6032 79.4583 11.6494 77.7498 10.5212C76.3879 9.62172 75.1538 9.44911 73.5579 9.44911H69.0033L69.0078 9.45296V22.2566ZM69.0078 26.7921V34.4656H63.6395V26.7921H69.0078Z" fill="white"/>
<path fill-rule="evenodd" clip-rule="evenodd" d="M28.4478 26.7732V33.5393L27.5341 34.4656H5.02599L4.1123 33.5393V26.7732H28.4478ZM7.52397 32.2968V30.8253H8.29328L9.43633 32.2968H10.372L9.1618 30.7421C9.67164 30.5966 9.97411 30.217 9.97411 29.7334C9.97411 29.4164 9.84959 29.1577 9.61001 28.9587C9.36795 28.7577 9.03813 28.6571 8.62403 28.6571H6.7173V32.2968H7.52397ZM7.52397 29.3123H8.57902C8.94324 29.3123 9.1618 29.4787 9.1618 29.7542C9.1618 30.0403 8.94304 30.1962 8.57902 30.1962H7.52397V29.3123ZM13.8337 32.2968V31.6261H11.6075V30.7828H13.1858V30.1226H11.6075V29.3278H13.7721V28.6571H10.8009V32.2968H13.8337ZM14.2081 29.3278H15.4463V32.2968H16.253V29.3278H17.4969V28.6571H14.2081V29.3278ZM18.0339 32.2968L18.4205 31.4544H20.0788L20.4654 32.2968H21.3226L19.6419 28.6363H18.8687L17.1878 32.2968H18.0339ZM19.2497 29.5722L19.8211 30.8357H18.6726L19.2497 29.5722ZM22.575 32.2968V28.6571H21.7738V32.2968H22.575ZM26.4379 32.2968V31.6261H24.2662V28.6571H23.4594V32.2968H26.4379Z" fill="white"/>
<path fill-rule="evenodd" clip-rule="evenodd" d="M17.4054 4.89258H27.5342L28.4478 5.81887V22.9957H7.59278L16.3524 10.0208L20.849 16.6814H14.9795L12.4293 20.4588C17.1489 20.4588 21.8685 20.4588 26.588 20.4588L27.1925 19.3893L17.4054 4.89258ZM5.02599 4.89258H15.2994L5.51225 19.3893L4.1123 21.4629V5.81887L5.02599 4.89258Z" fill="#EA570F"/>
<path fill-rule="evenodd" clip-rule="evenodd" d="M111.308 18.333H111.313V33.1449L111.129 33.2174C110.623 33.4174 110.093 33.5753 109.57 33.7188C108.876 33.9084 108.168 34.0531 107.461 34.1793C106.668 34.3207 105.868 34.4261 105.068 34.5077C104.255 34.5908 103.438 34.6396 102.621 34.6396C100.47 34.6396 98.2591 34.3724 96.2269 33.5948C94.516 32.9398 92.9426 31.9888 91.6397 30.6342C90.3983 29.3434 89.4845 27.8118 88.8856 26.0827C88.2417 24.224 87.9795 22.2621 87.9795 20.2884C87.9795 18.8452 88.1302 17.4085 88.4598 16.007C88.7712 14.6821 89.2393 13.4099 89.8762 12.2214C90.4949 11.0674 91.257 10.0146 92.1439 9.0764C93.046 8.12315 94.0719 7.31688 95.189 6.66822C96.3648 5.98537 97.621 5.48998 98.9219 5.1498C100.34 4.78027 101.804 4.62134 103.263 4.62134C104.566 4.62134 105.871 4.71354 107.157 4.92852C108.168 5.09703 109.222 5.3244 110.188 5.68684L110.376 5.75721V10.7485L110.011 10.6284C108.992 10.296 107.951 10.041 106.898 9.86486C105.85 9.68998 104.79 9.6007 103.728 9.6007C102.367 9.6007 101.021 9.80567 99.7305 10.2718C98.5396 10.7018 97.4646 11.3517 96.5341 12.2493C95.6014 13.1487 94.9059 14.2426 94.4082 15.4667C93.8414 16.8621 93.6277 18.3928 93.6313 19.9043C93.6384 22.5398 94.1608 25.3321 96.0205 27.2333C97.8408 29.0947 100.332 29.6591 102.792 29.6591C103.362 29.6591 103.932 29.6287 104.499 29.5671C104.941 29.5188 105.388 29.4606 105.826 29.3732V23.2828H99.7889V18.3287H111.313L111.308 18.333Z" fill="white"/>
<path fill-rule="evenodd" clip-rule="evenodd" d="M140.211 19.63C140.211 21.6798 139.956 23.7267 139.328 25.6711C138.76 27.4316 137.903 29.0469 136.719 30.4266C135.543 31.7959 134.122 32.8239 132.51 33.5385C130.722 34.3306 128.793 34.6397 126.862 34.6397C124.932 34.6397 123.002 34.3306 121.214 33.5385C119.602 32.8239 118.181 31.7959 117.005 30.4266C115.821 29.0473 114.971 27.4305 114.403 25.6711C113.775 23.7259 113.513 21.6817 113.513 19.63C113.513 17.5784 113.776 15.5345 114.403 13.5889C114.971 11.8296 115.821 10.2139 117.005 8.83419C118.181 7.46456 119.601 6.4361 121.214 5.7212C123.002 4.92909 124.932 4.62109 126.862 4.62109C128.792 4.62109 130.722 4.92909 132.51 5.7212C134.123 6.4361 135.543 7.4642 136.719 8.83419C137.903 10.2143 138.76 11.828 139.328 13.5889C139.956 15.5335 140.211 17.5803 140.211 19.63ZM134.71 19.63C134.71 18.1428 134.559 16.6145 134.112 15.1956C133.754 14.0593 133.233 12.9718 132.473 12.0655C131.792 11.2524 130.973 10.6275 130.014 10.2143C129.011 9.78199 127.945 9.60094 126.862 9.60094C125.779 9.60094 124.713 9.78199 123.71 10.2143C122.75 10.6275 121.933 11.2521 121.251 12.0655C120.491 12.9718 119.971 14.0593 119.613 15.1956C119.166 16.6145 119.014 18.1428 119.014 19.63C119.014 21.1154 119.166 22.6474 119.613 24.0645C119.971 25.2 120.489 26.2823 121.25 27.1864C121.934 27.9976 122.752 28.6229 123.71 29.0391C124.713 29.4747 125.779 29.6587 126.862 29.6587C127.945 29.6587 129.011 29.4747 130.014 29.0391C130.971 28.6229 131.791 27.9972 132.474 27.1864C133.235 26.2823 133.754 25.2 134.112 24.0645C134.558 22.6478 134.71 21.115 134.71 19.63Z" fill="white"/>
</svg>
