<svg width="24" height="24" viewBox="0 0 24 24" fill="none" xmlns="http://www.w3.org/2000/svg">
<path d="M9.68571 3C11.4589 3 13.1594 3.70439 14.4132 4.9582C15.667 6.21202 16.3714 7.91255 16.3714 9.68571C16.3714 11.3417 15.7646 12.864 14.7669 14.0366L15.0446 14.3143H15.8571L21 19.4571L19.4571 21L14.3143 15.8571V15.0446L14.0366 14.7669C12.8234 15.8024 11.2807 16.3713 9.68571 16.3714C7.91255 16.3714 6.21202 15.667 4.9582 14.4132C3.70439 13.1594 3 11.4589 3 9.68571C3 7.91255 3.70439 6.21202 4.9582 4.9582C6.21202 3.70439 7.91255 3 9.68571 3ZM9.68571 5.05714C7.11429 5.05714 5.05714 7.11429 5.05714 9.68571C5.05714 12.2571 7.11429 14.3143 9.68571 14.3143C12.2571 14.3143 14.3143 12.2571 14.3143 9.68571C14.3143 7.11429 12.2571 5.05714 9.68571 5.05714Z" fill="white"/>
</svg>
