<svg width="40" height="40" viewBox="0 0 40 40" fill="none" xmlns="http://www.w3.org/2000/svg">
<g clip-path="url(#clip0_1553_2456)">
<path d="M38.0236 21.5481C38.4971 20.5423 38.745 19.4451 38.75 18.3334C38.7601 16.4923 38.0925 14.7118 36.8744 13.3313C35.9222 12.2437 35.4035 10.8438 35.4169 9.39844V9.16681C35.4155 8.33655 35.1228 7.53309 34.5898 6.89654C34.0567 6.25999 33.3171 5.83074 32.5 5.68362V4.375C32.5 4.20924 32.4342 4.05027 32.3169 3.93306C32.1997 3.81585 32.0408 3.75 31.875 3.75C31.7092 3.75 31.5503 3.81585 31.4331 3.93306C31.3158 4.05027 31.25 4.20924 31.25 4.375V5.68362C30.4329 5.83073 29.6934 6.25995 29.1603 6.89644C28.6273 7.53294 28.3345 8.33634 28.3331 9.16656V9.39819C28.3466 10.8438 27.8275 12.2438 26.875 13.3313C26.4296 13.8361 26.0566 14.4005 25.7669 15.0082C25.7194 15.0066 25.6728 15 25.625 15C25.1429 15.0016 24.665 15.0889 24.2135 15.2579C23.1534 13.5028 21.6459 12.5 20 12.5C19.0985 12.508 18.2229 12.8027 17.5 13.3415V12.4481C17.4987 11.3019 17.0429 10.2031 16.2324 9.3926C15.4219 8.58213 14.3231 8.12626 13.1769 8.125C12.9056 8.12501 12.6375 8.18389 12.3912 8.29756C12.1448 8.41124 11.9261 8.577 11.75 8.78343C11.574 8.98985 11.4448 9.23202 11.3714 9.49321C11.298 9.7544 11.2822 10.0284 11.325 10.2963C11.4008 10.7366 11.6292 11.1362 11.9701 11.4249C12.3111 11.7137 12.7428 11.8731 13.1896 11.8753C13.3391 11.8794 13.4811 11.9414 13.5857 12.0483C13.6903 12.1552 13.7492 12.2986 13.75 12.4481V13.3415C13.0271 12.8027 12.1515 12.508 11.25 12.5C9.60675 12.5 8.09713 13.5023 7.03025 15.2563C6.58069 15.0883 6.10489 15.0016 5.625 15C2.52319 15 0 18.6447 0 23.125C0 27.6053 2.52319 31.25 5.625 31.25C6.35352 31.2427 7.06717 31.043 7.69375 30.6713C8.48794 31.4218 9.53252 31.8508 10.625 31.875C11.1948 31.8717 11.7574 31.7484 12.2764 31.5131C12.6915 32.0002 13.2038 32.3952 13.7804 32.6728C14.3571 32.9504 14.9854 33.1044 15.625 33.125C16.2646 33.1044 16.8929 32.9504 17.4695 32.6729C18.0461 32.3953 18.5584 32.0004 18.9735 31.5133C19.4925 31.7484 20.0552 31.8716 20.625 31.875C21.682 31.8538 22.6965 31.4555 23.4856 30.7519C24.6706 33.2109 26.7404 35.2779 28.6652 35.9949C29.0733 36.1847 29.521 36.2739 29.9708 36.2551C30.4205 36.2362 30.8592 36.1098 31.25 35.8866C31.6335 36.1323 32.0812 36.2591 32.5366 36.2509C32.9811 36.2433 33.4207 36.1565 33.8348 35.9947C36.745 34.9109 40 30.7464 40 26.7956C40.0389 25.8332 39.884 24.8727 39.5444 23.9712C39.2049 23.0698 38.6878 22.2458 38.0236 21.5481ZM27.8082 14.1629C28.9648 12.8464 29.5967 11.1505 29.5832 9.39819V9.16656C29.5832 8.55872 29.8247 7.97577 30.2545 7.54596C30.6843 7.11615 31.2673 6.87469 31.8751 6.87469C32.483 6.87469 33.0659 7.11615 33.4957 7.54596C33.9255 7.97577 34.167 8.55872 34.167 9.16656V9.39819C34.1536 11.1502 34.7851 12.846 35.9412 14.1625C36.9552 15.3143 37.51 16.7989 37.5 18.3334C37.4981 19.1705 37.3317 19.999 37.0101 20.7718C36.2587 20.3453 35.4203 20.0947 34.558 20.039C33.6958 19.9834 32.8321 20.124 32.0321 20.4504C32.2071 19.9545 32.5311 19.5249 32.9599 19.2205C33.3886 18.9161 33.9011 18.7517 34.4269 18.75C34.5926 18.75 34.7516 18.6842 34.8688 18.5669C34.986 18.4497 35.0519 18.2908 35.0519 18.125C35.0519 17.9592 34.986 17.8003 34.8688 17.6831C34.7516 17.5658 34.5926 17.5 34.4269 17.5C33.6364 17.5013 32.866 17.7488 32.2226 18.208C31.5792 18.6672 31.0947 19.3154 30.8366 20.0625C30.1683 17.646 28.7723 15.8911 27.058 15.2592C27.2665 14.867 27.5181 14.4992 27.8082 14.1629ZM25.625 16.25C27.3146 16.25 28.8518 17.8226 29.5726 20.182C28.3091 19.877 26.979 20.021 25.8101 20.5893C25.4501 19.2132 24.7307 17.9576 23.7257 16.9511C24.2621 16.5107 24.9311 16.2638 25.625 16.25ZM20 13.75C21.1776 13.75 22.2896 14.5092 23.1144 15.8466C22.9672 15.9518 22.8253 16.0645 22.6894 16.1841C22.0611 15.8227 21.3499 15.6301 20.625 15.625C19.7715 15.6345 18.9405 15.8999 18.2394 16.3867C17.9711 15.9042 17.774 15.3855 17.6542 14.8467C17.9517 14.5159 18.3127 14.2484 18.7157 14.06C19.1187 13.8716 19.5554 13.7662 20 13.75ZM13.2172 10.625C13.0644 10.6273 12.9155 10.5767 12.7958 10.4818C12.6761 10.3868 12.5929 10.2534 12.5604 10.1041C12.5453 10.0144 12.5499 9.92259 12.5739 9.83492C12.5979 9.74725 12.6408 9.66587 12.6994 9.59646C12.7581 9.52705 12.8313 9.47128 12.9137 9.43303C12.9962 9.39478 13.086 9.37498 13.1769 9.375C13.9916 9.37594 14.7727 9.70002 15.3489 10.2761C15.925 10.8523 16.2491 11.6334 16.25 12.4481V13.5981C16.2495 14.8767 16.6007 16.1308 17.2651 17.2231L17.2612 17.2276C16.747 16.9948 16.1891 16.8744 15.6246 16.8744C15.0602 16.8744 14.5022 16.9948 13.988 17.2276L13.9845 17.2235C14.6491 16.1311 15.0005 14.877 15 13.5983V12.4483C14.9974 11.9725 14.81 11.5164 14.4773 11.1762C14.1446 10.8361 13.6928 10.6382 13.2172 10.625ZM11.25 13.75C11.6946 13.7662 12.1313 13.8716 12.5343 14.06C12.9373 14.2484 13.2983 14.5159 13.5958 14.8467C13.4759 15.3857 13.2788 15.9046 13.0103 16.3871C12.3094 15.9 11.4785 15.6346 10.625 15.625C9.90246 15.6316 9.1943 15.8277 8.57131 16.1938C8.43039 16.0695 8.28313 15.9527 8.13013 15.8438C8.96062 14.5084 10.075 13.75 11.25 13.75ZM5.625 30C3.21287 30 1.25 26.9159 1.25 23.125C1.25 19.3341 3.21287 16.25 5.625 16.25C6.32547 16.265 7.00022 16.5167 7.53944 16.9641C6.01175 18.4183 5 20.9152 5 23.75C4.95648 25.8826 5.5945 27.9734 6.82125 29.7184C6.44792 29.8987 6.03956 29.9948 5.625 30ZM10.625 30.625C8.21288 30.625 6.25 27.5409 6.25 23.75C6.25 19.9591 8.21288 16.875 10.625 16.875C11.4884 16.9021 12.306 17.2701 12.8988 17.8984C11.172 19.287 10 21.9482 10 25C9.97173 26.9291 10.4857 28.8274 11.4833 30.4788C11.2068 30.5729 10.9171 30.6223 10.625 30.625ZM15.625 31.875C13.2129 31.875 11.25 28.7909 11.25 25C11.25 21.2091 13.2129 18.125 15.625 18.125C18.0371 18.125 20 21.2091 20 25C20 28.7909 18.0371 31.875 15.625 31.875ZM22.9821 29.5237C22.683 29.8557 22.3202 30.1243 21.9153 30.3135C21.5104 30.5027 21.0716 30.6086 20.625 30.625C20.3329 30.6222 20.0432 30.5729 19.7666 30.4789C20.7643 28.8275 21.2783 26.9292 21.25 25C21.25 21.9478 20.0777 19.2863 18.3505 17.8978C18.9436 17.2696 19.7614 16.9019 20.625 16.875C22.425 16.875 24.0712 18.6881 24.7125 21.3246C23.9712 22.0232 23.3897 22.8738 23.0079 23.8181C22.626 24.7624 22.4527 25.7781 22.5 26.7956C22.5114 27.7251 22.6742 28.6466 22.9821 29.5237ZM33.3984 34.8233C32.6318 35.1083 32.0685 35.0519 31.7224 34.6527C31.6638 34.5849 31.5913 34.5305 31.5097 34.4932C31.4282 34.4559 31.3396 34.4366 31.25 34.4366C31.1604 34.4366 31.0718 34.4559 30.9903 34.4932C30.9087 34.5305 30.8362 34.5849 30.7776 34.6527C30.4315 35.0519 29.8669 35.1083 29.1016 34.8233C26.6779 33.9206 23.75 30.1383 23.75 26.7956C23.75 24.6381 24.5496 22.8714 25.9442 21.9489C26.5858 21.5498 27.3173 21.3181 28.0717 21.2753C28.8261 21.2324 29.5791 21.3797 30.2618 21.7035C30.3798 21.7504 30.5012 21.7882 30.625 21.8168V23.6409C30.3208 23.5459 30.0438 23.3796 29.8169 23.1558C29.7592 23.0963 29.6902 23.0489 29.614 23.0163C29.5378 22.9837 29.4559 22.9666 29.373 22.966C29.2901 22.9654 29.208 22.9813 29.1313 23.0127C29.0546 23.0441 28.9849 23.0905 28.9263 23.1491C28.8677 23.2077 28.8214 23.2774 28.7899 23.354C28.7585 23.4307 28.7427 23.5129 28.7433 23.5958C28.7439 23.6786 28.761 23.7606 28.7936 23.8368C28.8262 23.913 28.8736 23.9819 28.9331 24.0396C29.548 24.6533 30.3813 24.9979 31.25 24.9979C32.1187 24.9979 32.952 24.6533 33.5669 24.0396C33.6264 23.9819 33.6738 23.913 33.7064 23.8368C33.739 23.7606 33.7561 23.6786 33.7567 23.5958C33.7573 23.5129 33.7415 23.4307 33.7101 23.354C33.6786 23.2774 33.6323 23.2077 33.5737 23.1491C33.5151 23.0905 33.4454 23.0441 33.3687 23.0127C33.292 22.9813 33.2099 22.9654 33.127 22.966C33.0441 22.9666 32.9622 22.9837 32.886 23.0163C32.8098 23.0489 32.7408 23.0963 32.6831 23.1558C32.4562 23.3796 32.1792 23.5459 31.875 23.6409V21.8166C31.9988 21.7881 32.1202 21.7503 32.2382 21.7035C32.9209 21.3799 33.674 21.2327 34.4283 21.2756C35.1826 21.3185 35.9142 21.55 36.5558 21.9489C37.9504 22.8714 38.75 24.6381 38.75 26.7956C38.75 30.1383 35.8221 33.9206 33.3984 34.8233Z" fill="#EA570F"/>
</g>
<defs>
<clipPath id="clip0_1553_2456">
<rect width="40" height="40" fill="white"/>
</clipPath>
</defs>
</svg>
