<svg width="40" height="40" viewBox="0 0 40 40" fill="none" xmlns="http://www.w3.org/2000/svg">
<g clip-path="url(#clip0_1553_2479)">
<path d="M34.6667 19.5804V14.667C34.6667 14.2988 34.3682 14.0003 34 14.0003C33.6318 14.0003 33.3333 13.7018 33.3333 13.3337C33.3333 12.9655 33.6318 12.667 34 12.667C34.3682 12.667 34.6667 12.3685 34.6667 12.0003V7.33366C34.6667 4.26693 25.9466 2.66699 17.3333 2.66699C8.72005 2.66699 0 4.26693 0 7.33366V20.0003C0 22.2236 4.29199 23.3877 7.89323 23.9723H7.90267H7.93001C7.95345 23.9756 7.97689 23.9775 8.00065 23.9782C8.00879 23.9782 8.01595 23.9743 8.02409 23.9743C8.09212 23.9733 8.15951 23.9616 8.22396 23.9398H8.23275L16.6667 20.945V24.0003C16.6667 24.3685 16.9652 24.667 17.3333 24.667C18.0573 24.667 18.7754 24.6523 19.488 24.6302L14.3493 27.4144C14.3125 27.4375 14.278 27.4642 14.2467 27.4945C14.1585 27.5527 14.0911 27.6377 14.0547 27.737C14.0508 27.7471 14.0508 27.7591 14.0465 27.7695C14.0218 27.8353 14.0078 27.9046 14.0052 27.9749C14.0052 27.9844 14 27.9915 14 28.0003V31.4671C14 31.8353 14.2985 32.1338 14.6667 32.1338H14.8001C15.1084 32.1868 15.3337 32.4541 15.3337 32.7669C15.3337 33.0798 15.1084 33.3473 14.8001 33.4004H14.6667C14.2985 33.4004 14 33.6989 14 34.0671V36.667C14 37.0352 14.2985 37.3337 14.6667 37.3337H39.3333C39.7015 37.3337 40 37.0352 40 36.667V28.0003C39.9951 24.3997 37.9196 21.1234 34.6667 19.5804ZM32 13.3337C32.0036 14.1781 32.5371 14.9294 33.3333 15.2109V19.0602C32.4684 18.8001 31.57 18.6676 30.6667 18.667C30.556 18.667 30.4466 18.6947 30.3493 18.7477L22.208 23.1576L21.9528 23.1764C20.6732 23.2656 19.3434 23.3096 18 23.3223V11.9964C24.3678 11.9355 30.6667 10.9964 33.3333 9.24772V11.4564C32.5371 11.738 32.0036 12.4893 32 13.3337ZM17.3333 4.00033C27.8379 4.00033 33.3333 6.17025 33.3333 7.33366C33.3333 8.47168 28.0618 10.5671 18 10.6582V7.33366C18 7.11719 17.8945 6.91439 17.7178 6.78939C17.541 6.66471 17.3148 6.63346 17.1107 6.70573L7.94141 9.96159C3.10124 9.15365 1.33333 7.9515 1.33333 7.33366C1.33333 6.17025 6.82878 4.00033 17.3333 4.00033ZM1.33333 20.0003V9.27246C2.7627 10.2057 5.12337 10.8203 7.33333 11.2103V22.5225C2.95215 21.7184 1.33333 20.5918 1.33333 20.0003ZM8.66667 22.3704V11.1191L16.6667 8.27832V12.123C16.4531 12.0439 16.2275 12.0026 16 12.0003C14.8955 12.0003 14 12.8958 14 14.0003C14 15.1048 14.8955 16.0003 16 16.0003C16.2275 15.998 16.4531 15.9567 16.6667 15.8776V19.5296L8.66667 22.3704ZM16.6667 14.0003C16.6667 14.3685 16.3682 14.667 16 14.667C15.6318 14.667 15.3333 14.3685 15.3333 14.0003C15.3333 13.6322 15.6318 13.3337 16 13.3337C16.3682 13.3337 16.6667 13.6322 16.6667 14.0003ZM38.6667 36.0003H15.3333V34.6523C16.1315 34.3691 16.665 33.6143 16.665 32.7673C16.665 31.9206 16.1315 31.1654 15.3333 30.8825V28.667H38.6667V36.0003ZM17.2972 27.3337L30.8307 20.0003C31.8298 20.0202 32.8161 20.2279 33.738 20.613C36.4964 21.7646 38.3854 24.3551 38.6387 27.3337H17.2972Z" fill="#EA570F"/>
<path d="M20 34C21.1045 34 22 33.1045 22 32C22 30.8955 21.1045 30 20 30C18.8955 30 18 30.8955 18 32C18 33.1045 18.8955 34 20 34ZM20 31.3333C20.3682 31.3333 20.6667 31.6318 20.6667 32C20.6667 32.3682 20.3682 32.6667 20 32.6667C19.6318 32.6667 19.3333 32.3682 19.3333 32C19.3333 31.6318 19.6318 31.3333 20 31.3333Z" fill="#EA570F"/>
<path d="M30.667 34.666C31.7715 34.666 32.667 33.7705 32.667 32.666C32.667 31.5615 31.7715 30.666 30.667 30.666C29.5625 30.666 28.667 31.5615 28.667 32.666C28.667 33.7705 29.5625 34.666 30.667 34.666ZM30.667 31.9993C31.0352 31.9993 31.3337 32.2979 31.3337 32.666C31.3337 33.0342 31.0352 33.3327 30.667 33.3327C30.2988 33.3327 30.0003 33.0342 30.0003 32.666C30.0003 32.2979 30.2988 31.9993 30.667 31.9993Z" fill="#EA570F"/>
<path d="M34.667 33.334H36.0003V34.6673H34.667V33.334Z" fill="#EA570F"/>
<path d="M36 30H37.3333V31.3333H36V30Z" fill="#EA570F"/>
<path d="M23.333 33.334H24.6663V34.6673H23.333V33.334Z" fill="#EA570F"/>
<path d="M25.333 30H26.6663V31.3333H25.333V30Z" fill="#EA570F"/>
<path d="M12 16C10.8955 16 10 16.8955 10 18C10 19.1045 10.8955 20 12 20C13.1045 20 14 19.1045 14 18C14 16.8955 13.1045 16 12 16ZM12 18.6667C11.6318 18.6667 11.3333 18.3682 11.3333 18C11.3333 17.6318 11.6318 17.3333 12 17.3333C12.3682 17.3333 12.6667 17.6318 12.6667 18C12.6667 18.3682 12.3682 18.6667 12 18.6667Z" fill="#EA570F"/>
<path d="M10 12.667H11.3333V14.0003H10V12.667Z" fill="#EA570F"/>
</g>
<defs>
<clipPath id="clip0_1553_2479">
<rect width="40" height="40" fill="white"/>
</clipPath>
</defs>
</svg>
