<svg width="40" height="40" viewBox="0 0 40 40" fill="none" xmlns="http://www.w3.org/2000/svg">
<path d="M10.8324 14.763C9.62161 17.0117 9.43242 19.3955 9.2162 22.1576C9.16215 22.8711 10.2378 22.9576 10.2919 22.2441C10.4973 19.6063 10.6757 17.3252 11.7784 15.282C12.1243 14.6495 11.1784 14.1306 10.8324 14.763Z" fill="#EA570F"/>
<path d="M17.2536 10.9471C16.8752 10.3417 15.9563 10.9147 16.3401 11.5201C18.0752 14.2768 19.9942 16.4444 22.0482 17.9633C22.6158 18.3849 23.2698 17.5201 22.6914 17.093C20.7401 15.6552 18.9131 13.5849 17.2536 10.9471Z" fill="#EA570F"/>
<path d="M27.8381 14.6651C28.3408 11.3408 30.1192 10.0003 30.476 9.76782C31.0705 9.37323 30.4705 8.47053 29.876 8.87053C29.4597 9.15161 27.3408 10.7354 26.7732 14.5084C26.6597 15.2111 27.73 15.3786 27.8381 14.6651Z" fill="#EA570F"/>
<path d="M24.1084 5.5415C21.9462 5.07664 20.2597 4.84961 18.9624 4.84961C16.5786 4.84961 15.2273 5.56853 14.2976 7.33069C13.9624 7.96312 14.9246 8.46583 15.2543 7.83339C15.8759 6.66042 16.7138 5.93069 18.9678 5.93069C20.1895 5.93069 21.8003 6.14691 23.8867 6.60096C24.1786 6.66583 24.4651 6.47664 24.53 6.18474C24.584 5.88745 24.4003 5.60096 24.1084 5.5415Z" fill="#EA570F"/>
<path d="M37.8054 8.60587C37.7946 8.54641 37.773 8.49235 37.7405 8.44371C36.4378 6.22749 34.3297 6.11938 33.7459 5.50317C33.7568 5.44911 33.7676 5.40046 33.7676 5.34641C33.6973 3.56262 31.9189 3.48154 30.2757 3.58425C24.973 3.91398 15.373 -1.41035 11.6595 6.56262C11.6324 6.61668 11.6162 6.67614 11.6108 6.7356C11.2649 10.0545 8.75676 12.9464 8.55676 13.2978C6.98379 16.1032 6.75135 19.0761 6.52433 21.9518C6.0973 27.3734 5.65406 26.6167 6.14595 27.4113L4.83244 31.8924C3.68108 31.8167 2.57838 32.5572 2.24325 33.714C1.63784 35.7788 3.72973 37.5842 5.67027 36.7464C6.87027 38.514 9.6 38.0869 10.1946 36.0383C10.5351 34.8869 10.0054 33.6707 8.9946 33.1086L10.3622 28.4383C10.6595 28.2059 16.2649 20.8167 20.6108 20.2545C22.2919 21.4653 26.0757 23.3896 27.6649 23.2491C29.1027 23.9356 31.6703 24.8924 32.5027 20.968C33.0973 18.1734 33.0108 16.4221 34.8811 14.4113C36.4595 12.7356 38.2108 10.5518 37.8054 8.60587ZM8.18379 33.941C8.94054 34.1734 9.37838 34.9788 9.15676 35.741C8.76757 37.0761 6.86487 37.141 6.4 35.8221C6.28109 35.4815 5.85946 35.3464 5.56217 35.5734C5.18379 35.8599 4.70811 35.9464 4.25946 35.8167C2.41622 35.2761 3.24325 32.5032 5.06487 33.0275C5.97298 33.2924 5.77838 31.8599 7.02703 28.2329C7.63244 28.6005 8.38919 28.8275 9.12433 28.8221C8.20541 32.6059 7.28649 33.6653 8.18379 33.941ZM21.0865 19.2653C21.0811 19.2653 21.0811 19.2653 21.0865 19.2653C18.4865 17.3464 16.1189 14.5194 14.0595 10.8653C13.7081 10.2437 12.7676 10.7734 13.1189 11.3951C15.0108 14.7464 17.1568 17.4329 19.5135 19.4005C14.8 20.8383 9.88108 27.4978 9.63784 27.6383C9.00541 27.968 7.34595 27.4599 7.03244 26.7788C7.96217 22.2545 7.25406 17.8653 9.4919 13.8491C11.4216 11.2437 12.4378 9.04371 12.6811 6.9356C15.9838 0.0112731 24.7405 5.01127 30.3514 4.65452C31.3351 4.59506 32.6054 4.48154 32.6919 5.30317C32.5838 5.70317 32.3189 7.00046 33.0919 7.70317C33.3135 7.90857 33.0216 8.5356 32.8865 8.741C32.8162 8.84371 32.7892 8.96803 32.8 9.09235C32.8703 9.76262 32.8541 10.5302 32.7892 10.6761C32.6324 10.8113 31.8054 10.9302 31.4757 11.0599C28.9351 12.0653 30.0919 15.5302 28.7189 16.114C28.1459 16.3572 27.6324 16.6924 27.6162 18.0761C27.6108 18.8329 28.5946 18.9086 29.0865 19.1572C28.7784 19.5626 28.1946 19.6437 28.1946 20.2869C28.1946 20.8113 28.7081 21.1356 28.8919 21.2329C28.9135 21.5356 27.9784 22.3248 27.3243 22.168C25.1027 21.6599 23.0054 20.6815 21.0865 19.2653ZM34.0973 13.6815C31.9892 15.941 32.0324 18.0113 31.4487 20.7518C31.3135 21.3842 30.3892 22.6815 29.8703 22.8491C29.7568 22.8707 29.4595 22.8005 29.0973 22.6761C30 21.9842 30.3514 20.9194 29.4162 20.314C29.8432 20.0383 30.3081 19.4653 30.1946 18.9248C30.0541 18.2275 29.1892 18.0545 28.7027 17.8707C28.773 16.514 30.1351 17.6491 30.5135 15.0545C30.8865 12.5626 31.2216 12.2005 32.2919 11.9626C33.6216 11.6653 34.0919 11.4329 33.8919 9.16262C34.7676 7.58425 33.8054 6.95181 33.7189 6.76803C34.6703 7.23289 35.9027 7.51398 36.7622 8.91398C36.9946 10.3788 35.3568 12.3302 34.0973 13.6815Z" fill="#EA570F"/>
</svg>
