<svg width="40" height="40" viewBox="0 0 40 40" fill="none" xmlns="http://www.w3.org/2000/svg">
<g clip-path="url(#clip0_1553_2465)">
<path d="M8.58745 5.03854C5.98592 4.78713 4.76272 9.37501 7.95088 9.57828C10.5685 9.819 11.7685 5.21685 8.58745 5.03854ZM9.23114 7.33159C9.00825 7.70248 8.7818 8.41036 8.23261 8.36578C6.92026 8.42106 7.10392 7.43145 7.66381 6.63084C8.13811 5.82488 9.7411 6.30632 9.23114 7.32446V7.33159ZM3.8694 19.6117H9.41658C9.49884 19.6073 9.58115 19.6196 9.65848 19.648C9.73581 19.6764 9.80654 19.7203 9.86635 19.7769C9.92616 19.8336 9.9738 19.9018 10.0064 19.9775C10.0389 20.0532 10.0557 20.1347 10.0557 20.2171C10.0557 20.2995 10.0389 20.381 10.0064 20.4566C9.9738 20.5323 9.92616 20.6006 9.86635 20.6572C9.80654 20.7139 9.73581 20.7577 9.65848 20.7861C9.58115 20.8146 9.49884 20.8269 9.41658 20.8224H3.8694C3.71453 20.814 3.56877 20.7466 3.46211 20.634C3.35546 20.5214 3.29601 20.3722 3.29601 20.2171C3.29601 20.062 3.35546 19.9128 3.46211 19.8002C3.56877 19.6876 3.71453 19.6201 3.8694 19.6117ZM3.8694 22.643H9.41658C9.57145 22.6514 9.71721 22.7188 9.82386 22.8314C9.93052 22.944 9.98996 23.0932 9.98996 23.2483C9.98996 23.4034 9.93052 23.5526 9.82386 23.6652C9.71721 23.7778 9.57145 23.8453 9.41658 23.8537H3.8694C3.70814 23.8537 3.55348 23.7896 3.43945 23.6756C3.32542 23.5616 3.26136 23.4069 3.26136 23.2456C3.26136 23.0844 3.32542 22.9297 3.43945 22.8157C3.55348 22.7017 3.70814 22.6376 3.8694 22.6376V22.643ZM3.8694 25.6742H7.6014C7.75627 25.6826 7.90203 25.7501 8.00868 25.8627C8.11534 25.9753 8.17478 26.1245 8.17478 26.2796C8.17478 26.4347 8.11534 26.5839 8.00868 26.6965C7.90203 26.8091 7.75627 26.8765 7.6014 26.8849H3.8694C3.70743 26.8849 3.55209 26.8206 3.43756 26.7061C3.32303 26.5915 3.25869 26.4362 3.25869 26.2742C3.25869 26.1123 3.32303 25.9569 3.43756 25.8424C3.55209 25.7279 3.70743 25.6635 3.8694 25.6635V25.6742ZM40.0001 13.0945C39.9929 12.9784 39.9574 12.8657 39.8967 12.7664L35.7457 6.6879V4.2843C35.7457 4.12351 35.6818 3.96931 35.5681 3.85561C35.4544 3.74192 35.3002 3.67805 35.1394 3.67805H23.1802C23.1009 3.67828 23.0223 3.69415 22.949 3.72474C22.8758 3.75533 22.8093 3.80006 22.7533 3.85635C22.6974 3.91265 22.653 3.97941 22.6229 4.05284C22.5927 4.12627 22.5773 4.20492 22.5775 4.2843V6.6879L20.7766 9.31795L17.4744 3.09498V0.652148C17.4753 0.492918 17.4132 0.339781 17.3016 0.226189C17.19 0.112596 17.038 0.04778 16.8788 0.0458984L4.91963 0.0458984C4.75963 0.0468417 4.60653 0.111187 4.49389 0.22483C4.38125 0.338473 4.31826 0.492141 4.31873 0.652148V3.09498L0.128479 11.0083C-0.196043 11.2883 0.21585 39.0242 0.0589382 39.3344C0.0589379 39.414 0.0746318 39.4927 0.10512 39.5662C0.135609 39.6396 0.180293 39.7063 0.236612 39.7625C0.292931 39.8187 0.359778 39.8631 0.433321 39.8934C0.506864 39.9237 0.585658 39.9391 0.665188 39.9389C11.8772 39.8872 28.5063 40.0263 39.6078 39.8979C39.7213 39.8528 39.8189 39.7754 39.8887 39.6752C39.9584 39.575 39.9972 39.4565 40.0001 39.3344V13.0945ZM35.1394 7.94854L38.2491 12.5025H32.0297C32.3667 12.0068 34.8702 8.33725 35.1394 7.94854ZM23.7883 4.89055H34.5331V6.27066H23.7883V4.89055ZM5.52767 1.2584H16.2743V2.64029H5.52767V1.2584ZM12.0145 38.7282H1.27144V11.8981H12.0145V38.7282ZM1.67085 10.6874L5.28695 3.84922H15.8696C15.3008 4.91908 12.8686 9.52479 12.2553 10.6874H1.67085ZM13.227 11.4434L16.8788 4.53928L20.0063 10.452C19.3775 11.2882 18.8141 12.1716 18.3213 13.0945C18.3106 13.0945 18.3213 36.025 18.3213 36.0322C17.8827 35.7415 17.0732 34.5433 16.4794 35.1103L13.227 37.9882V11.4434ZM16.8788 36.3727L18.3178 37.6476V38.7282H14.2167L16.8788 36.3727ZM30.2734 38.7282H19.5303V13.7133H30.2734V38.7282ZM30.5622 12.5025H20.0705L23.4994 7.48137H33.9893L30.5622 12.5025ZM32.479 38.7282L35.1394 36.3727L37.8015 38.7282H32.479ZM38.7929 37.9882L35.5388 35.1103C35.4277 35.0124 35.2848 34.9584 35.1367 34.9584C34.9887 34.9584 34.8457 35.0124 34.7346 35.1103L31.4859 37.9882V13.7133H38.7965L38.7929 37.9882ZM22.483 32.1415H27.3241C27.4849 32.1415 27.6391 32.0776 27.7528 31.9639C27.8665 31.8502 27.9304 31.696 27.9304 31.5352V20.6834C27.9299 20.5229 27.8658 20.3691 27.7522 20.2558C27.6385 20.1425 27.4846 20.0789 27.3241 20.0789H22.483C22.3226 20.0789 22.1686 20.1425 22.055 20.2558C21.9413 20.3691 21.8773 20.5229 21.8768 20.6834V31.5388C21.8777 31.699 21.942 31.8522 22.0556 31.9652C22.1692 32.0781 22.3229 32.1415 22.483 32.1415ZM23.0857 21.286H26.7179V30.929H23.0857V21.286Z" fill="#EA570F"/>
</g>
<defs>
<clipPath id="clip0_1553_2465">
<rect width="40" height="40" fill="white"/>
</clipPath>
</defs>
</svg>
