<svg width="40" height="40" viewBox="0 0 40 40" fill="none" xmlns="http://www.w3.org/2000/svg">
<g clip-path="url(#clip0_1553_2474)">
<path d="M24.375 16.25H15.625V17.5H24.375V16.25Z" fill="#EA570F"/>
<path d="M38.5669 17.9419C38.824 17.6864 39.0278 17.3824 39.1665 17.0476C39.3052 16.7127 39.3761 16.3537 39.375 15.9913V15C39.3716 13.5452 39.0312 12.1109 38.3806 10.8097C37.73 9.50847 36.7868 8.37563 35.625 7.5C34.9619 6.99923 34.5245 6.25593 34.4088 5.43313C34.589 5.32138 34.7378 5.16563 34.8412 4.98052C34.9446 4.79542 34.9993 4.58704 35 4.375V1.875C35 1.54348 34.8683 1.22554 34.6339 0.991117C34.3995 0.756696 34.0815 0.625 33.75 0.625H27.5C27.1685 0.625 26.8505 0.756696 26.6161 0.991117C26.3817 1.22554 26.25 1.54348 26.25 1.875V4.375C26.2507 4.58704 26.3054 4.79542 26.4088 4.98052C26.5122 5.16563 26.661 5.32138 26.8413 5.43313C26.7255 6.25593 26.2881 6.99923 25.625 7.5C25.106 7.8907 24.6291 8.33434 24.2019 8.82375C23.5003 7.8475 23.1236 6.67531 23.125 5.47312V5.45125C23.3144 5.34241 23.4719 5.18568 23.5816 4.99678C23.6913 4.80787 23.7493 4.59344 23.75 4.375V1.875C23.75 1.54348 23.6183 1.22554 23.3839 0.991117C23.1495 0.756696 22.8315 0.625 22.5 0.625H17.5C17.1685 0.625 16.8505 0.756696 16.6161 0.991117C16.3817 1.22554 16.25 1.54348 16.25 1.875V4.375C16.2507 4.59344 16.3088 4.80787 16.4185 4.99678C16.5282 5.18568 16.6856 5.34241 16.875 5.45125V5.47312C16.8771 6.23208 16.7287 6.98391 16.4383 7.68511C16.1479 8.3863 15.7212 9.02293 15.1831 9.55813C14.2696 10.4707 13.6272 11.619 13.3275 12.875C12.4367 10.9323 11.9478 8.82955 11.89 6.69312C12.0754 6.58306 12.229 6.42678 12.336 6.23956C12.4429 6.05235 12.4994 5.8406 12.5 5.625V1.875C12.5 1.54348 12.3683 1.22554 12.1339 0.991117C11.8995 0.756696 11.5815 0.625 11.25 0.625H5C4.66848 0.625 4.35054 0.756696 4.11612 0.991117C3.8817 1.22554 3.75 1.54348 3.75 1.875V5.625C3.75058 5.84037 3.80697 6.05191 3.91366 6.239C4.02034 6.42609 4.17369 6.58233 4.35875 6.6925C4.28164 9.67682 3.36208 12.5785 1.70625 15.0625C0.999981 16.12 0.623656 17.3634 0.625004 18.635V36.25C0.625996 37.0785 0.955555 37.8728 1.54139 38.4586C2.12723 39.0444 2.92151 39.374 3.75 39.375H12.5C12.9908 39.3754 13.4747 39.2593 13.9119 39.0363C14.1127 39.1787 14.3402 39.2793 14.5807 39.3322C14.8212 39.3851 15.0699 39.3891 15.3119 39.344C15.554 39.299 15.7846 39.2057 15.99 39.0699C16.1953 38.934 16.3713 38.7583 16.5075 38.5531L17.0481 37.7406C17.1004 37.67 17.1686 37.6127 17.247 37.5732C17.3255 37.5337 17.4121 37.5131 17.5 37.5131C17.5879 37.5131 17.6745 37.5337 17.753 37.5732C17.8314 37.6127 17.8996 37.67 17.9519 37.7406L18.5081 38.5756C18.6719 38.8212 18.8937 39.0226 19.154 39.1618C19.4142 39.3011 19.7048 39.374 20 39.374C20.2952 39.374 20.5858 39.3011 20.846 39.1618C21.1063 39.0226 21.3281 38.8212 21.4919 38.5756L22.0481 37.7406C22.1005 37.67 22.1686 37.6127 22.247 37.5732C22.3255 37.5337 22.4121 37.5131 22.5 37.5131C22.5879 37.5131 22.6745 37.5337 22.753 37.5732C22.8314 37.6127 22.8996 37.67 22.9519 37.7406L23.4925 38.5531C23.6585 38.8017 23.8824 39.006 24.1451 39.1486C24.4078 39.2911 24.7012 39.3676 25 39.3713V39.375H36.25C37.0785 39.374 37.8728 39.0444 38.4586 38.4586C39.0445 37.8728 39.374 37.0785 39.375 36.25V25.8838C39.3761 25.5213 39.3052 25.1623 39.1665 24.8274C39.0278 24.4926 38.824 24.1886 38.5669 23.9331C38.285 23.6495 38.1262 23.2662 38.125 22.8662V19.0087C38.1262 18.6088 38.285 18.2255 38.5669 17.9419ZM37.6831 24.8169C37.9336 25.0719 38.086 25.4073 38.1131 25.7638L36.4588 24.7712C36.0054 24.5056 35.487 24.3715 34.9618 24.3841C34.4365 24.3967 33.9251 24.5554 33.485 24.8425L32.6481 25.4C32.416 25.5497 32.1441 25.6257 31.868 25.618C31.5919 25.6103 31.3246 25.5193 31.1013 25.3569L30.1731 24.6613C29.5269 24.1934 28.7715 23.899 27.979 23.8064C27.1866 23.7137 26.3836 23.8258 25.6469 24.1319C25.6363 24.0044 25.625 23.875 25.625 23.75C25.6257 23.0263 25.7943 22.3126 26.1175 21.665C26.6148 20.6673 26.874 19.5679 26.875 18.4531V16.875H37.8331C37.788 16.9399 37.7379 17.0011 37.6831 17.0581C37.4261 17.3136 37.2223 17.6176 37.0835 17.9524C36.9448 18.2873 36.8739 18.6463 36.875 19.0087V22.8662C36.8739 23.2287 36.9448 23.5877 37.0835 23.9226C37.2223 24.2574 37.4261 24.5614 37.6831 24.8169ZM26.8125 28.125C26.7109 27.3294 26.4768 26.5564 26.12 25.8381C26.0464 25.6893 25.9809 25.5365 25.9238 25.3806C26.4769 25.1024 27.0958 24.9814 27.713 25.0309C28.3302 25.0804 28.922 25.2984 29.4238 25.6612L30.3519 26.3569C30.7839 26.6707 31.3006 26.8465 31.8343 26.8614C32.368 26.8762 32.8938 26.7293 33.3425 26.44L34.1794 25.8825C34.4215 25.7243 34.703 25.6368 34.9922 25.6298C35.2814 25.6229 35.5668 25.6967 35.8163 25.8431L38.125 27.2288V28.125H26.8125ZM13.125 29.045V34.375H1.875V20.625H13.4731C13.5823 20.9805 13.719 21.3269 13.8819 21.6613C14.2062 22.3098 14.375 23.0249 14.375 23.75C14.375 24.4751 14.2062 25.1902 13.8819 25.8387C13.3854 26.8347 13.1263 27.9321 13.125 29.045ZM14.375 18.455V15H25.625V18.4531C25.625 18.5525 25.6125 18.6513 25.6075 18.75H14.3925C14.3875 18.6513 14.375 18.5537 14.375 18.455ZM27.5 1.875H33.75V4.375H27.5V1.875ZM26.375 8.5C27.2977 7.8026 27.9083 6.76961 28.0744 5.625H33.1756C33.3417 6.76961 33.9523 7.8026 34.875 8.5C35.8819 9.25889 36.6993 10.2407 37.2632 11.3684C37.827 12.4962 38.122 13.7392 38.125 15V15.625H26.875V14.5269C26.8774 12.7759 26.2208 11.0882 25.0356 9.79937C25.4304 9.31599 25.8799 8.87996 26.375 8.5ZM17.5 1.875H22.5V4.375H17.5V1.875ZM16.0669 10.4419C17.3501 9.16352 18.0855 7.43602 18.1175 5.625H21.8825C21.9145 7.43602 22.6499 9.16352 23.9331 10.4419C24.8277 11.3342 25.4021 12.4973 25.5669 13.75H14.4331C14.5979 12.4973 15.1723 11.3342 16.0669 10.4419ZM5 5.625V4.375H11.25V5.625H5ZM11.25 1.875V3.125H5V1.875H11.25ZM2.74688 15.7569C4.50462 13.1187 5.49319 10.0433 5.60188 6.875H10.6469C10.751 9.80077 11.6042 12.6509 13.125 15.1525V18.455C13.1259 18.7627 13.1467 19.07 13.1875 19.375H1.875V18.635C1.87394 17.6104 2.17742 16.6086 2.74688 15.7569ZM3.75 38.125C3.25272 38.125 2.77581 37.9275 2.42418 37.5758C2.07255 37.2242 1.875 36.7473 1.875 36.25V35.625H13.125V37.5288C13.1263 37.6839 13.1473 37.8383 13.1875 37.9881C12.9691 38.077 12.7358 38.1234 12.5 38.125H3.75ZM24.5325 37.8594L23.9919 37.0469C23.8281 36.8013 23.6063 36.5999 23.346 36.4607C23.0858 36.3214 22.7952 36.2485 22.5 36.2485C22.2048 36.2485 21.9142 36.3214 21.654 36.4607C21.3937 36.5999 21.1719 36.8013 21.0081 37.0469L20.4519 37.8819C20.3996 37.9525 20.3314 38.0098 20.253 38.0493C20.1745 38.0888 20.0879 38.1094 20 38.1094C19.9121 38.1094 19.8255 38.0888 19.747 38.0493C19.6686 38.0098 19.6004 37.9525 19.5481 37.8819L18.9919 37.0469C18.8281 36.8013 18.6063 36.5999 18.346 36.4607C18.0858 36.3214 17.7952 36.2485 17.5 36.2485C17.2048 36.2485 16.9142 36.3214 16.654 36.4607C16.3937 36.5999 16.1719 36.8013 16.0081 37.0469L15.4675 37.8594C15.3965 37.9659 15.2932 38.0468 15.1727 38.09C15.0522 38.1333 14.9211 38.1366 14.7985 38.0995C14.676 38.0625 14.5687 37.9869 14.4924 37.8841C14.4162 37.7814 14.375 37.6567 14.375 37.5288V29.045C14.3761 28.1261 14.59 27.2199 15 26.3975C15.411 25.5755 15.625 24.669 15.625 23.75C15.625 22.831 15.411 21.9245 15 21.1025C14.8268 20.7496 14.6892 20.3803 14.5894 20H25.4106C25.3105 20.3806 25.173 20.7503 25 21.1037C24.5894 21.9257 24.3756 22.8318 24.3756 23.7506C24.3756 24.6694 24.5894 25.5756 25 26.3975C25.4102 27.22 25.6242 28.1265 25.625 29.0456V37.5288C25.625 37.6567 25.5839 37.7814 25.5076 37.8841C25.4313 37.9869 25.324 38.0625 25.2015 38.0995C25.079 38.1366 24.9478 38.1333 24.8273 38.09C24.7068 38.0468 24.6035 37.9659 24.5325 37.8594ZM36.25 38.125H26.7675C26.8365 37.9337 26.8728 37.7321 26.875 37.5288V29.375H38.125V36.25C38.125 36.7473 37.9275 37.2242 37.5758 37.5758C37.2242 37.9275 36.7473 38.125 36.25 38.125Z" fill="#EA570F"/>
<path d="M32.375 18.3754C32.3142 18.3017 32.2378 18.2423 32.1514 18.2015C32.065 18.1608 31.9706 18.1396 31.875 18.1396C31.7794 18.1396 31.6851 18.1608 31.5986 18.2015C31.5122 18.2423 31.4358 18.3017 31.375 18.3754L29.875 20.3754C29.5964 20.7468 29.4268 21.1885 29.3851 21.6509C29.3434 22.1133 29.4313 22.5782 29.6389 22.9934C29.8466 23.4087 30.1657 23.7579 30.5607 24.002C30.9556 24.2461 31.4107 24.3754 31.875 24.3754C32.3393 24.3754 32.7944 24.2461 33.1893 24.002C33.5843 23.7579 33.9034 23.4087 34.1111 22.9934C34.3187 22.5782 34.4066 22.1133 34.3649 21.6509C34.3232 21.1885 34.1536 20.7468 33.875 20.3754L32.375 18.3754ZM31.875 23.1254C31.6429 23.1254 31.4153 23.0607 31.2178 22.9387C31.0204 22.8167 30.8608 22.642 30.757 22.4344C30.6532 22.2268 30.6092 21.9943 30.6301 21.7631C30.6509 21.5319 30.7357 21.3111 30.875 21.1254L31.875 19.7923L32.875 21.1254C33.0143 21.3111 33.0991 21.5319 33.12 21.7631C33.1408 21.9943 33.0969 22.2268 32.993 22.4344C32.8892 22.642 32.7296 22.8167 32.5322 22.9387C32.3347 23.0607 32.1071 23.1254 31.875 23.1254Z" fill="#EA570F"/>
<path d="M10.625 23.125H5.625C5.12772 23.125 4.65081 23.3225 4.29917 23.6742C3.94754 24.0258 3.75 24.5027 3.75 25V30C3.75 30.4973 3.94754 30.9742 4.29917 31.3258C4.65081 31.6775 5.12772 31.875 5.625 31.875H10.625C11.1223 31.875 11.5992 31.6775 11.9508 31.3258C12.3025 30.9742 12.5 30.4973 12.5 30V25C12.5 24.5027 12.3025 24.0258 11.9508 23.6742C11.5992 23.3225 11.1223 23.125 10.625 23.125ZM11.25 30C11.25 30.1658 11.1842 30.3247 11.0669 30.4419C10.9497 30.5592 10.7908 30.625 10.625 30.625H5.625C5.45924 30.625 5.30027 30.5592 5.18306 30.4419C5.06585 30.3247 5 30.1658 5 30V25C5 24.8342 5.06585 24.6753 5.18306 24.5581C5.30027 24.4408 5.45924 24.375 5.625 24.375H10.625C10.7908 24.375 10.9497 24.4408 11.0669 24.5581C11.1842 24.6753 11.25 24.8342 11.25 25V30Z" fill="#EA570F"/>
</g>
<defs>
<clipPath id="clip0_1553_2474">
<rect width="40" height="40" fill="white"/>
</clipPath>
</defs>
</svg>
