<svg width="40" height="40" viewBox="0 0 40 40" fill="none" xmlns="http://www.w3.org/2000/svg">
<g clip-path="url(#clip0_1553_2469)">
<path d="M22.1854 26.5576H17.8147C17.4909 26.5576 17.2286 26.82 17.2286 27.1437C17.2286 27.4675 17.4909 27.7299 17.8147 27.7299H22.1854C22.5092 27.7299 22.7715 27.4675 22.7715 27.1437C22.7715 26.82 22.5091 26.5576 22.1854 26.5576Z" fill="#EA570F"/>
<path d="M22.1854 28.8291H17.8147C17.4909 28.8291 17.2286 29.0915 17.2286 29.4152C17.2286 29.739 17.4909 30.0014 17.8147 30.0014H22.1854C22.5092 30.0014 22.7715 29.739 22.7715 29.4152C22.7715 29.0915 22.5091 28.8291 22.1854 28.8291Z" fill="#EA570F"/>
<path d="M34.4002 5.37207H5.59978C2.51206 5.37207 0 7.88421 0 10.972V12.2056C0 12.5294 0.262351 12.7917 0.586128 12.7917C0.909904 12.7917 1.17226 12.5294 1.17226 12.2056V10.972C1.17226 8.53059 3.15845 6.5444 5.59978 6.5444H12.1808V7.32591H5.59986C3.58945 7.32583 1.95376 8.96152 1.95376 10.972V29.0287C1.95376 31.0392 3.58945 32.6748 5.59986 32.6748H12.1808V33.4563H5.59978C3.15845 33.4563 1.17226 31.4701 1.17226 29.0286V11.4196C1.17226 11.0958 0.909904 10.8335 0.586128 10.8335C0.262351 10.8335 0 11.0958 0 11.4196V29.0287C0 32.1165 2.51206 34.6286 5.59978 34.6286H34.4002C37.488 34.6286 40 32.1164 40 29.0287V10.972C40 7.88421 37.4879 5.37207 34.4002 5.37207ZM29.5631 14.5085C29.4695 14.6469 29.3272 14.7383 29.1625 14.7663L27.8192 14.994V12.7461L28.7026 12.5438C28.8619 12.5075 29.0252 12.5356 29.1628 12.6232C29.3006 12.7108 29.3955 12.8468 29.4299 13.0063L29.6535 14.0409C29.6888 14.2041 29.6566 14.3701 29.5631 14.5085ZM29.6214 20.0142L29.41 21.1613C29.3555 21.457 29.0896 21.6712 28.7874 21.6567L27.8191 21.6138V18.839L28.4671 18.6626C28.7263 18.5925 29.0046 18.7033 29.1439 18.9325L29.5433 19.5896C29.6207 19.7169 29.6484 19.8677 29.6214 20.0142ZM27.8192 25.3053L28.7714 24.9889C29.0075 24.9104 29.2639 24.9824 29.4246 25.1722L29.8215 25.6406C29.9819 25.83 30.01 26.1037 29.8915 26.3218L29.6308 26.8009C29.5241 26.997 29.3212 27.1172 29.0988 27.1172C29.0943 27.1172 29.0897 27.1172 29.0851 27.1171L27.8192 27.089V25.3053ZM27.8192 30.7029C28.0879 30.7239 28.3559 30.7466 28.6185 30.7689C29.5273 30.846 30.4134 30.9211 31.2359 30.9211C32.2633 30.9211 33.1913 30.8038 33.9387 30.4263C34.2277 30.2805 34.3436 29.9278 34.1977 29.6389C34.0518 29.35 33.6992 29.2339 33.4103 29.38C32.361 29.9099 30.5912 29.7597 28.7175 29.6009C28.4232 29.5759 28.1221 29.5504 27.8192 29.5271V28.2615C28.7287 28.2816 29.0683 28.2895 29.0994 28.2895C29.7519 28.2894 30.3474 27.9365 30.6605 27.3612L30.9213 26.8819C31.2693 26.242 31.1868 25.4385 30.7158 24.8828L30.3191 24.4144C29.8472 23.8575 29.0947 23.6464 28.4019 23.8765L27.8193 24.0701V22.7873C28.7893 22.8296 28.7467 22.8295 28.814 22.8295C29.6635 22.8295 30.4078 22.2159 30.563 21.3737L30.7744 20.2267C30.8537 19.7967 30.7722 19.3543 30.5452 18.9809L30.1459 18.3238C29.7367 17.6505 28.9196 17.325 28.1595 17.5316L27.8193 17.6242V16.1831L29.3586 15.9221C29.8419 15.8402 30.2593 15.5716 30.534 15.1656C30.8087 14.7597 30.903 14.2724 30.7994 13.7933L30.5758 12.7588C30.4746 12.2905 30.1962 11.891 29.7919 11.6339C29.3877 11.3769 28.9079 11.2941 28.4411 11.4012L27.8193 11.5436V10.41C28.8093 10.0989 30.0543 9.88932 30.853 10.4148C31.6173 10.9177 31.7727 12.8799 31.923 14.7776C32.0992 17.0015 32.2813 19.3012 33.4202 20.5902C35.0277 22.4091 35.584 25.7684 34.6283 27.9255C34.4971 28.2214 34.6308 28.5677 34.9267 28.6989C35.0038 28.7331 35.0846 28.7493 35.1638 28.7493C35.3887 28.7493 35.6031 28.6192 35.7 28.4004C36.739 26.0553 36.3072 22.6446 34.7724 20.4214L35.8042 18.6264C36.2204 17.9022 36.3961 17.0465 36.2989 16.2169C36.0867 14.4063 34.6731 13.0102 32.9133 12.7847C32.7251 11.2816 32.3841 10.019 31.4972 9.43542C30.5998 8.84499 29.3645 8.76231 27.8193 9.18768V8.49808H34.4003C35.7643 8.49808 36.8741 9.60782 36.8741 10.9719V29.0286C36.8741 30.3928 35.7643 31.5025 34.4003 31.5025H27.8193L27.8192 30.7029ZM34.0075 19.3997C33.3768 18.2877 33.2262 16.3867 33.0915 14.685C33.0732 14.4538 33.055 14.2239 33.0358 13.9967C34.1394 14.2539 34.997 15.1794 35.1346 16.3534C35.2027 16.9348 35.0796 17.5345 34.7878 18.0422L34.0075 19.3997ZM8.61201 27.0035C8.15249 26.922 7.84895 26.4941 7.92101 26.0295C7.94742 25.8591 7.89756 25.6858 7.78463 25.5556C7.67319 25.4272 7.51165 25.3535 7.34183 25.3535C7.33074 25.3536 7.31987 25.3539 7.30878 25.3544C6.84355 25.3468 6.46741 24.966 6.46741 24.499C6.46741 24.3956 6.48585 24.2945 6.52243 24.1983C6.67615 23.7937 6.53532 23.3413 6.17989 23.0981C5.94615 22.9382 5.80657 22.6741 5.80657 22.3917C5.80657 22.1731 5.88957 21.9653 6.04032 21.8061C6.38082 21.4463 6.38074 20.883 6.04024 20.5235C5.88957 20.3644 5.80657 20.1565 5.80657 19.9379C5.80657 19.6766 5.91926 19.4912 6.01375 19.3817C6.31799 19.0294 6.31806 18.5178 6.01375 18.1653C5.91919 18.0558 5.80657 17.8705 5.80657 17.6091C5.80657 17.3267 5.94615 17.0627 6.18005 16.9026C6.53532 16.6595 6.67615 16.2071 6.52235 15.8023C6.48585 15.7064 6.46741 15.6053 6.46741 15.5018C6.46741 15.092 6.75821 14.7389 7.15888 14.6624C7.58238 14.5815 7.8917 14.2246 7.91108 13.7946C7.9289 13.4017 8.2236 13.0664 8.61209 12.9974C9.11006 12.9088 9.43892 12.4446 9.36069 11.9403C9.35342 11.8933 9.35014 11.8455 9.35092 11.7977C9.35827 11.3474 9.74472 10.962 10.1948 10.956C10.2785 10.956 10.3633 10.9662 10.4438 10.9898C10.8999 11.1235 11.3774 10.892 11.5542 10.4522C11.6636 10.1803 11.901 9.98732 12.1809 9.93222V30.0687C11.901 30.0136 11.6638 29.8205 11.5543 29.5489C11.4111 29.1927 11.0712 28.9735 10.7049 28.9735C10.5337 28.9666 10.3688 29.0526 10.1949 29.0449C9.7448 29.039 9.35835 28.6535 9.351 28.2031C9.35022 28.1556 9.3535 28.1076 9.36085 28.0604C9.43876 27.5561 9.10991 27.0919 8.61201 27.0035ZM5.59986 31.5026C4.23575 31.5026 3.12601 30.3928 3.12601 29.0286V10.972C3.12601 9.6079 4.23575 8.49816 5.59986 8.49816H12.1808V8.75051C11.4926 8.80647 10.8836 9.20863 10.5599 9.81468C10.4348 9.79249 10.3081 9.78202 10.1795 9.78373C9.09389 9.79804 8.19649 10.6929 8.17882 11.7782C8.17812 11.8178 8.17867 11.8575 8.18039 11.8972C7.43046 12.1235 6.86715 12.7773 6.7575 13.5543C5.89996 13.8017 5.29523 14.5929 5.29523 15.5017C5.29523 15.6872 5.32032 15.8698 5.36994 16.0466C4.90628 16.4301 4.63439 17.0015 4.63439 17.6089C4.63439 18.0271 4.76428 18.4338 5.00334 18.7734C4.7642 19.1132 4.63439 19.5197 4.63439 19.9377C4.63439 20.3848 4.78022 20.8132 5.0489 21.1647C4.78022 21.5161 4.63439 21.9445 4.63439 22.3916C4.63439 22.999 4.90636 23.5706 5.36994 23.9539C5.32032 24.1307 5.29523 24.3134 5.29523 24.4988C5.29523 25.4203 5.91309 26.2002 6.75617 26.4461C6.86152 27.2226 7.40811 27.876 8.18039 28.1042C8.17875 28.1436 8.1782 28.183 8.17882 28.2222C8.19649 29.3078 9.09389 30.2026 10.1796 30.2168C10.307 30.2192 10.4348 30.2082 10.5599 30.1859C10.8835 30.7919 11.4926 31.1941 12.1808 31.2501V31.5024L5.59986 31.5026ZM13.3531 33.4563C13.3531 29.8576 13.3531 10.5817 13.3531 6.54448H16.2821V14.414C16.2821 14.7378 16.5444 15.0002 16.8682 15.0002C17.192 15.0002 17.4543 14.7378 17.4543 14.414V6.5444H22.5455V18.6304C22.5455 19.0625 22.1939 19.4141 21.7617 19.4141H18.2381C17.8059 19.4141 17.4543 19.0625 17.4543 18.6304V13.8224C17.4543 13.4986 17.192 13.2363 16.8682 13.2363C16.5444 13.2363 16.2821 13.4986 16.2821 13.8224V18.6304C16.2821 19.7089 17.1596 20.5864 18.2381 20.5864H21.7617C22.8403 20.5864 23.7178 19.7088 23.7178 18.6304V6.5444H26.6468V33.4563L13.3531 33.4563ZM38.8278 29.0286C38.8278 31.4701 36.8416 33.4563 34.4002 33.4563H27.8192V32.6748H34.4002C36.4107 32.6748 38.0462 31.0391 38.0462 29.0286V10.972C38.0462 8.96152 36.4106 7.32591 34.4002 7.32591H27.8192V6.5444H34.4002C36.8416 6.5444 38.8278 8.53059 38.8278 10.972V29.0286Z" fill="#EA570F"/>
</g>
<defs>
<clipPath id="clip0_1553_2469">
<rect width="40" height="40" fill="white"/>
</clipPath>
</defs>
</svg>
