<svg width="32" height="32" viewBox="0 0 32 32" fill="none" xmlns="http://www.w3.org/2000/svg">
<g clip-path="url(#clip0_183_1488)">
<path fill-rule="evenodd" clip-rule="evenodd" d="M16 32C24.8365 32 32 24.8365 32 16C32 7.16344 24.8365 0 16 0C7.16344 0 0 7.16344 0 16C0 24.8365 7.16344 32 16 32ZM23.476 11.8539C24.204 11.7674 24.8981 11.5739 25.5433 11.2878C25.0611 12.0095 24.4509 12.6433 23.7471 13.1506C23.7541 13.3047 23.7576 13.4601 23.7576 13.616C23.7576 18.3727 20.1371 23.8571 13.5168 23.8571C11.4843 23.8571 9.592 23.2615 8 22.2399C8.28104 22.2733 8.56824 22.2903 8.85813 22.2903C10.5449 22.2903 12.0966 21.7151 13.3287 20.7496C11.7533 20.7203 10.4244 19.6796 9.96644 18.25C10.186 18.2919 10.4112 18.3141 10.6437 18.3141C10.9714 18.3141 11.29 18.2704 11.5917 18.1877C9.94551 17.8573 8.70433 16.4028 8.70433 14.6588C8.70433 14.6439 8.70433 14.6285 8.7046 14.6132C9.18964 14.8835 9.745 15.0453 10.3347 15.0639C9.36948 14.4187 8.73359 13.3165 8.73359 12.0681C8.73359 11.4086 8.91128 10.7899 9.22104 10.2584C10.9964 12.4366 13.6487 13.8695 16.6399 14.0195C16.5781 13.7559 16.5463 13.4813 16.5463 13.1992C16.5463 11.2118 18.158 9.59995 20.1455 9.59995C21.1813 9.59995 22.1167 10.0369 22.7733 10.7362C23.5928 10.5749 24.3633 10.2756 25.0588 9.863C24.7896 10.704 24.2192 11.4086 23.476 11.8539Z" fill="#043F5C"/>
</g>
<defs>
<clipPath id="clip0_183_1488">
<rect width="32" height="32" fill="white"/>
</clipPath>
</defs>
</svg>
