<svg width="32" height="32" viewBox="0 0 32 32" fill="none" xmlns="http://www.w3.org/2000/svg">
<g clip-path="url(#clip0_183_1486)">
<path fill-rule="evenodd" clip-rule="evenodd" d="M16 32C24.8365 32 32 24.8365 32 16C32 7.16344 24.8365 0 16 0C7.16344 0 0 7.16344 0 16C0 24.8365 7.16344 32 16 32ZM16.9415 22.3531H15.7939C15.7939 22.3531 13.2616 22.5089 11.0317 20.1351C8.59977 17.5457 6.45199 12.4077 6.45199 12.4077C6.45199 12.4077 6.32819 12.0709 6.46268 11.908C6.61385 11.7249 7.02569 11.7132 7.02569 11.7132L9.76907 11.6948C9.76907 11.6948 10.0276 11.739 10.2127 11.8779C10.3652 11.9925 10.4507 12.2068 10.4507 12.2068C10.4507 12.2068 10.894 13.3533 11.4813 14.3907C12.6274 16.4157 13.1612 16.8587 13.5504 16.6417C14.1173 16.3253 13.9473 13.7791 13.9473 13.7791C13.9473 13.7791 13.9577 12.8547 13.6619 12.4432C13.4328 12.1242 13.0006 12.0311 12.8098 12.005C12.6555 11.984 12.9089 11.6175 13.2373 11.4531C13.7309 11.2057 14.6029 11.1916 15.6329 11.2025C16.4356 11.2108 16.6665 11.2619 16.9803 11.3395C17.7084 11.5193 17.6857 12.0953 17.6367 13.3381C17.6221 13.7095 17.6051 14.1404 17.6051 14.638C17.6051 14.75 17.6019 14.8693 17.5987 14.9921C17.5816 15.6287 17.5621 16.3573 17.9719 16.6281C18.1819 16.7668 18.6959 16.6489 19.9815 14.4168C20.5909 13.3589 21.0477 12.1151 21.0477 12.1151C21.0477 12.1151 21.1476 11.8933 21.3027 11.7982C21.4615 11.7012 21.6755 11.731 21.6755 11.731L24.5624 11.7126C24.5624 11.7126 25.4299 11.6068 25.5704 12.0071C25.7176 12.4275 25.2461 13.4088 24.0667 15.0163C22.9452 16.5445 22.4011 17.1052 22.4537 17.6025C22.492 17.9641 22.8457 18.2924 23.5224 18.9347C24.9435 20.2835 25.3223 20.9916 25.4123 21.16C25.4196 21.1736 25.4249 21.1836 25.4288 21.1903C26.0648 22.2685 24.7235 22.3531 24.7235 22.3531L22.1595 22.3896C22.1595 22.3896 21.6084 22.5012 20.8833 21.992C20.5041 21.7259 20.1333 21.2912 19.7801 20.8771C19.2401 20.2441 18.7411 19.6591 18.3151 19.7971C17.6004 20.0289 17.6228 21.6036 17.6228 21.6036C17.6228 21.6036 17.628 21.94 17.4651 22.1191C17.2881 22.3141 16.9415 22.3531 16.9415 22.3531Z" fill="#043F5C"/>
</g>
<defs>
<clipPath id="clip0_183_1486">
<rect width="32" height="32" fill="white"/>
</clipPath>
</defs>
</svg>
