<svg width="32" height="32" viewBox="0 0 32 32" fill="none" xmlns="http://www.w3.org/2000/svg">
<g clip-path="url(#clip0_183_1484)">
<path fill-rule="evenodd" clip-rule="evenodd" d="M16 32C24.8365 32 32 24.8365 32 16C32 7.16344 24.8365 0 16 0C7.16344 0 0 7.16344 0 16C0 24.8365 7.16344 32 16 32ZM8.48715 9.59608C9.99327 9.19996 15.994 9.19996 15.994 9.19996C15.994 9.19996 22.0068 9.19997 23.5128 9.62009C24.3311 9.83616 24.9833 10.4963 25.1968 11.3245C25.6119 12.849 25.6 16.018 25.6 16.018C25.6 16.018 25.6 19.1749 25.1968 20.6875C24.9833 21.5276 24.3311 22.1757 23.5128 22.4039C22.0068 22.8 15.994 22.8 15.994 22.8C15.994 22.8 10.0051 22.8 8.48715 22.3919C7.66885 22.1637 7.01669 21.5036 6.79136 20.6755C6.40001 19.1749 6.4 16.006 6.4 16.006C6.4 16.006 6.40001 12.849 6.79136 11.3245C7.01669 10.4963 7.68072 9.82415 8.48715 9.59608ZM19.0775 16.006L14.0847 13.0891V18.9108L19.0775 16.006Z" fill="#043F5C"/>
</g>
<defs>
<clipPath id="clip0_183_1484">
<rect width="32" height="32" fill="white"/>
</clipPath>
</defs>
</svg>
